<?xml version="1.0"?>
<svg xmlns="http://www.w3.org/2000/svg" width="2000" height="1300" viewBox="-1000 -650 2000 1300">
    <g>
        <path d="M-991,-647L991,-647L991,647L-991,647Z" fill="#ffffff" stroke="#000000"/>
        <path d="M-478,-183L-84,-322" fill="#9f9f9f" stroke="#909090"/>
        <path d="M-478,-183L-84,-189.60" fill="#9f9f9f" stroke="#909090"/>
        <path d="M-478,-183L-84,-57.20" fill="#9f9f9f" stroke="#909090"/>
        <path d="M-478,-183L-84,75.20" fill="#9f9f9f" stroke="#909090"/>
        <path d="M-478,-183L-84.00,207.60" fill="#9f9f9f" stroke="#909090"/>
        <path d="M-478,-183L-84.00,340" fill="#9f9f9f" stroke="#909090"/>
        <path d="M-478,-48.67L-84,-322" fill="#9f9f9f" stroke="#909090"/>
        <path d="M-478,-48.67L-84,-189.60" fill="#9f9f9f" stroke="#909090"/>
        <path d="M-478,-48.67L-84,-57.20" fill="#9f9f9f" stroke="#909090"/>
        <path d="M-478,-48.67L-84,75.20" fill="#9f9f9f" stroke="#909090"/>
        <path d="M-478,-48.67L-84.00,207.60" fill="#9f9f9f" stroke="#909090"/>
        <path d="M-478,-48.67L-84.00,340" fill="#9f9f9f" stroke="#909090"/>
        <path d="M-478,85.67L-84,-322" fill="#9f9f9f" stroke="#909090"/>
        <path d="M-478,85.67L-84,-189.60" fill="#9f9f9f" stroke="#909090"/>
        <path d="M-478,85.67L-84,-57.20" fill="#9f9f9f" stroke="#909090"/>
        <path d="M-478,85.67L-84,75.20" fill="#9f9f9f" stroke="#909090"/>
        <path d="M-478,85.67L-84.00,207.60" fill="#9f9f9f" stroke="#909090"/>
        <path d="M-478,85.67L-84.00,340" fill="#9f9f9f" stroke="#909090"/>
        <path d="M-478,220L-84,-322" fill="#9f9f9f" stroke="#909090"/>
        <path d="M-478,220L-84,-189.60" fill="#9f9f9f" stroke="#909090"/>
        <path d="M-478,220L-84,-57.20" fill="#9f9f9f" stroke="#909090"/>
        <path d="M-478,220L-84,75.20" fill="#9f9f9f" stroke="#909090"/>
        <path d="M-478,220L-84.00,207.60" fill="#9f9f9f" stroke="#909090"/>
        <path d="M-478,220L-84.00,340" fill="#9f9f9f" stroke="#909090"/>
        <path d="M-797,-416L-478,-183" fill="#9f9f9f" stroke="#909090"/>
        <path d="M-797,-416L-478,-48.67" fill="#9f9f9f" stroke="#909090"/>
        <path d="M-797,-416L-478,85.67" fill="#9f9f9f" stroke="#909090"/>
        <path d="M-797,-416L-478,220" fill="#9f9f9f" stroke="#909090"/>
        <path d="M-797,-289.14L-478,-183" fill="#9f9f9f" stroke="#909090"/>
        <path d="M-797,-289.14L-478,-48.67" fill="#9f9f9f" stroke="#909090"/>
        <path d="M-797,-289.14L-478,85.67" fill="#9f9f9f" stroke="#909090"/>
        <path d="M-797,-289.14L-478,220" fill="#9f9f9f" stroke="#909090"/>
        <path d="M-797,-162.29L-478,-183" fill="#9f9f9f" stroke="#909090"/>
        <path d="M-797,-162.29L-478,-48.67" fill="#9f9f9f" stroke="#909090"/>
        <path d="M-797,-162.29L-478,85.67" fill="#9f9f9f" stroke="#909090"/>
        <path d="M-797,-162.29L-478,220" fill="#9f9f9f" stroke="#909090"/>
        <path d="M-797,-35.43L-478,-183" fill="#9f9f9f" stroke="#909090"/>
        <path d="M-797,-35.43L-478,-48.67" fill="#9f9f9f" stroke="#909090"/>
        <path d="M-797,-35.43L-478,85.67" fill="#9f9f9f" stroke="#909090"/>
        <path d="M-797,-35.43L-478,220" fill="#9f9f9f" stroke="#909090"/>
        <path d="M-797,91.43L-478,-183" fill="#9f9f9f" stroke="#909090"/>
        <path d="M-797,91.43L-478,-48.67" fill="#9f9f9f" stroke="#909090"/>
        <path d="M-797,91.43L-478,85.67" fill="#9f9f9f" stroke="#909090"/>
        <path d="M-797,91.43L-478,220" fill="#9f9f9f" stroke="#909090"/>
        <path d="M-797,218.29L-478,-183" fill="#9f9f9f" stroke="#909090"/>
        <path d="M-797,218.29L-478,-48.67" fill="#9f9f9f" stroke="#909090"/>
        <path d="M-797,218.29L-478,85.67" fill="#9f9f9f" stroke="#909090"/>
        <path d="M-797,218.29L-478,220" fill="#9f9f9f" stroke="#909090"/>
        <path d="M-797,345.14L-478,-183" fill="#9f9f9f" stroke="#909090"/>
        <path d="M-797,345.14L-478,-48.67" fill="#9f9f9f" stroke="#909090"/>
        <path d="M-797,345.14L-478,85.67" fill="#9f9f9f" stroke="#909090"/>
        <path d="M-797,345.14L-478,220" fill="#9f9f9f" stroke="#909090"/>
        <path d="M-797,472L-478,-183" fill="#9f9f9f" stroke="#909090"/>
        <path d="M-797,472L-478,-48.67" fill="#9f9f9f" stroke="#909090"/>
        <path d="M-797,472L-478,85.67" fill="#9f9f9f" stroke="#909090"/>
        <path d="M-797,472L-478,220" fill="#9f9f9f" stroke="#909090"/>
        <path d="M-84,-322L294,-322" fill="#9f9f9f" stroke="#909090"/>
        <path d="M-84,-322L294,-189.60" fill="#9f9f9f" stroke="#909090"/>
        <path d="M-84,-322L294,-57.20" fill="#9f9f9f" stroke="#909090"/>
        <path d="M-84,-322L294,75.20" fill="#9f9f9f" stroke="#909090"/>
        <path d="M-84,-322L294.00,207.60" fill="#9f9f9f" stroke="#909090"/>
        <path d="M-84,-322L294.00,340" fill="#9f9f9f" stroke="#909090"/>
        <path d="M-84,-189.60L294,-322" fill="#9f9f9f" stroke="#909090"/>
        <path d="M-84,-189.60L294,-189.60" fill="#9f9f9f" stroke="#909090"/>
        <path d="M-84,-189.60L294,-57.20" fill="#9f9f9f" stroke="#909090"/>
        <path d="M-84,-189.60L294,75.20" fill="#9f9f9f" stroke="#909090"/>
        <path d="M-84,-189.60L294.00,207.60" fill="#9f9f9f" stroke="#909090"/>
        <path d="M-84,-189.60L294.00,340" fill="#9f9f9f" stroke="#909090"/>
        <path d="M-84,-57.20L294,-322" fill="#9f9f9f" stroke="#909090"/>
        <path d="M-84,-57.20L294,-189.60" fill="#9f9f9f" stroke="#909090"/>
        <path d="M-84,-57.20L294,-57.20" fill="#9f9f9f" stroke="#909090"/>
        <path d="M-84,-57.20L294,75.20" fill="#9f9f9f" stroke="#909090"/>
        <path d="M-84,-57.20L294.00,207.60" fill="#9f9f9f" stroke="#909090"/>
        <path d="M-84,-57.20L294.00,340" fill="#9f9f9f" stroke="#909090"/>
        <path d="M-84,75.20L294,-322" fill="#9f9f9f" stroke="#909090"/>
        <path d="M-84,75.20L294,-189.60" fill="#9f9f9f" stroke="#909090"/>
        <path d="M-84,75.20L294,-57.20" fill="#9f9f9f" stroke="#909090"/>
        <path d="M-84,75.20L294,75.20" fill="#9f9f9f" stroke="#909090"/>
        <path d="M-84,75.20L294.00,207.60" fill="#9f9f9f" stroke="#909090"/>
        <path d="M-84,75.20L294.00,340" fill="#9f9f9f" stroke="#909090"/>
        <path d="M-84.00,207.60L294,-322" fill="#9f9f9f" stroke="#909090"/>
        <path d="M-84.00,207.60L294,-189.60" fill="#9f9f9f" stroke="#909090"/>
        <path d="M-84.00,207.60L294,-57.20" fill="#9f9f9f" stroke="#909090"/>
        <path d="M-84.00,207.60L294,75.20" fill="#9f9f9f" stroke="#909090"/>
        <path d="M-84.00,207.60L294.00,207.60" fill="#9f9f9f" stroke="#909090"/>
        <path d="M-84.00,207.60L294.00,340" fill="#9f9f9f" stroke="#909090"/>
        <path d="M-84.00,340L294,-322" fill="#9f9f9f" stroke="#909090"/>
        <path d="M-84.00,340L294,-189.60" fill="#9f9f9f" stroke="#909090"/>
        <path d="M-84.00,340L294,-57.20" fill="#9f9f9f" stroke="#909090"/>
        <path d="M-84.00,340L294,75.20" fill="#9f9f9f" stroke="#909090"/>
        <path d="M-84.00,340L294.00,207.60" fill="#9f9f9f" stroke="#909090"/>
        <path d="M-84.00,340L294.00,340" fill="#9f9f9f" stroke="#909090"/>
        <path d="M294,-322L736,-123" fill="#9f9f9f" stroke="#909090"/>
        <path d="M294,-322L736,16" fill="#9f9f9f" stroke="#909090"/>
        <path d="M294,-322L736,155" fill="#9f9f9f" stroke="#909090"/>
        <path d="M294,-189.60L736,-123" fill="#9f9f9f" stroke="#909090"/>
        <path d="M294,-189.60L736,16" fill="#9f9f9f" stroke="#909090"/>
        <path d="M294,-189.60L736,155" fill="#9f9f9f" stroke="#909090"/>
        <path d="M294,-57.20L736,-123" fill="#9f9f9f" stroke="#909090"/>
        <path d="M294,-57.20L736,16" fill="#9f9f9f" stroke="#909090"/>
        <path d="M294,-57.20L736,155" fill="#9f9f9f" stroke="#909090"/>
        <path d="M294,75.20L736,-123" fill="#9f9f9f" stroke="#909090"/>
        <path d="M294,75.20L736,16" fill="#9f9f9f" stroke="#909090"/>
        <path d="M294,75.20L736,155" fill="#9f9f9f" stroke="#909090"/>
        <path d="M294.00,207.60L736,-123" fill="#9f9f9f" stroke="#909090"/>
        <path d="M294.00,207.60L736,16" fill="#9f9f9f" stroke="#909090"/>
        <path d="M294.00,207.60L736,155" fill="#9f9f9f" stroke="#909090"/>
        <path d="M294.00,340L736,-123" fill="#9f9f9f" stroke="#909090"/>
        <path d="M294.00,340L736,16" fill="#9f9f9f" stroke="#909090"/>
        <path d="M294.00,340L736,155" fill="#9f9f9f" stroke="#909090"/>
        <path d="M-428,-183C-428,-155.39 -450.39,-133 -478,-133C-505.61,-133 -528,-155.39 -528,-183C-528,-210.61 -505.61,-233 -478,-233C-450.39,-233 -428,-210.61 -428,-183Z" stroke-width="4" fill="#ffffff" stroke="#5d6d7e"/>
        <path d="M-478.59,-167.09C-479.25,-166.70 -480.17,-166.50 -481.34,-166.50C-482.33,-166.50 -483.12,-166.78 -483.70,-167.34C-484.29,-167.89 -484.58,-168.80 -484.58,-170.06C-485.63,-168.80 -486.85,-167.89 -488.25,-167.34C-489.64,-166.78 -491.15,-166.50 -492.77,-166.50C-493.82,-166.50 -494.82,-166.62 -495.76,-166.86C-496.70,-167.11 -497.52,-167.48 -498.21,-167.99C-498.90,-168.50 -499.45,-169.17 -499.85,-169.99C-500.26,-170.82 -500.46,-171.81 -500.46,-172.99C-500.46,-174.31 -500.24,-175.39 -499.79,-176.23C-499.34,-177.06 -498.75,-177.75 -498.01,-178.27C-497.28,-178.80 -496.44,-179.20 -495.49,-179.47C-494.55,-179.73 -493.58,-179.96 -492.59,-180.14C-491.54,-180.35 -490.54,-180.51 -489.60,-180.61C-488.65,-180.72 -487.82,-180.87 -487.10,-181.06C-486.38,-181.26 -485.81,-181.54 -485.39,-181.92C-484.97,-182.29 -484.76,-182.84 -484.76,-183.56C-484.76,-184.40 -484.91,-185.07 -485.23,-185.58C-485.55,-186.09 -485.95,-186.48 -486.45,-186.75C-486.94,-187.02 -487.50,-187.20 -488.11,-187.30C-488.73,-187.39 -489.33,-187.43 -489.93,-187.43C-491.55,-187.43 -492.90,-187.12 -493.98,-186.51C-495.06,-185.89 -495.65,-184.73 -495.74,-183.02L-499.56,-183.02C-499.50,-184.46 -499.20,-185.68 -498.66,-186.67C-498.12,-187.66 -497.40,-188.46 -496.50,-189.07C-495.60,-189.69 -494.58,-190.13 -493.42,-190.40C-492.27,-190.67 -491.03,-190.81 -489.71,-190.81C-488.66,-190.81 -487.62,-190.73 -486.58,-190.58C-485.55,-190.43 -484.61,-190.12 -483.77,-189.66C-482.93,-189.19 -482.25,-188.54 -481.74,-187.70C-481.23,-186.86 -480.98,-185.77 -480.98,-184.42L-480.98,-172.44C-480.98,-171.54 -480.93,-170.88 -480.82,-170.47C-480.72,-170.05 -480.36,-169.84 -479.76,-169.84C-479.43,-169.84 -479.04,-169.91 -478.59,-170.06ZM-484.80,-179.02C-485.28,-178.66 -485.91,-178.39 -486.69,-178.23C-487.47,-178.06 -488.29,-177.93 -489.15,-177.82C-490.00,-177.72 -490.86,-177.60 -491.73,-177.46C-492.60,-177.33 -493.38,-177.11 -494.07,-176.81C-494.76,-176.51 -495.33,-176.08 -495.76,-175.53C-496.20,-174.97 -496.41,-174.21 -496.41,-173.26C-496.41,-172.62 -496.29,-172.09 -496.03,-171.66C-495.78,-171.22 -495.45,-170.87 -495.04,-170.60C-494.64,-170.33 -494.16,-170.13 -493.62,-170.02C-493.08,-169.90 -492.51,-169.84 -491.91,-169.84C-490.65,-169.84 -489.57,-170.01 -488.67,-170.35C-487.77,-170.70 -487.04,-171.13 -486.47,-171.66C-485.90,-172.18 -485.48,-172.75 -485.21,-173.37C-484.94,-173.98 -484.80,-174.56 -484.80,-175.10Z" fill="#5d6d7e"/>
        <path d="M-464.97,-151L-464.97,-169.43L-466.66,-169.43C-466.78,-168.74 -467.01,-168.17 -467.34,-167.72C-467.67,-167.27 -468.07,-166.91 -468.55,-166.65C-469.02,-166.39 -469.56,-166.21 -470.15,-166.12C-470.74,-166.02 -471.34,-165.98 -471.97,-165.98L-471.97,-164.21L-467.18,-164.21L-467.18,-151Z" fill="#5d6d7e"/>
        <path d="M-470.23,-212.24L-470.23,-214.01L-475.09,-214.01L-475.09,-189.88L-470.23,-189.88L-470.23,-191.65L-473.01,-191.65L-473.01,-212.24ZM-460.97,-195L-460.97,-213.43L-462.66,-213.43C-462.78,-212.74 -463.01,-212.17 -463.34,-211.72C-463.67,-211.27 -464.07,-210.91 -464.55,-210.65C-465.02,-210.39 -465.56,-210.21 -466.15,-210.12C-466.74,-210.02 -467.34,-209.98 -467.97,-209.98L-467.97,-208.21L-463.18,-208.21L-463.18,-195ZM-455.77,-191.65L-455.77,-189.88L-450.91,-189.88L-450.91,-214.01L-455.77,-214.01L-455.77,-212.24L-452.99,-212.24L-452.99,-191.65Z" fill="#5d6d7e"/>
        <path d="M-428,-48.67C-428,-21.05 -450.39,1.33 -478,1.33C-505.61,1.33 -528,-21.05 -528,-48.67C-528,-76.28 -505.61,-98.67 -478,-98.67C-450.39,-98.67 -428,-76.28 -428,-48.67Z" stroke-width="4" fill="#ffffff" stroke="#5d6d7e"/>
        <path d="M-478.59,-32.76C-479.25,-32.37 -480.17,-32.17 -481.34,-32.17C-482.33,-32.17 -483.12,-32.45 -483.70,-33.00C-484.29,-33.56 -484.58,-34.47 -484.58,-35.73C-485.63,-34.47 -486.85,-33.56 -488.25,-33.00C-489.64,-32.45 -491.15,-32.17 -492.77,-32.17C-493.82,-32.17 -494.82,-32.29 -495.76,-32.53C-496.70,-32.77 -497.52,-33.15 -498.21,-33.66C-498.90,-34.17 -499.45,-34.83 -499.85,-35.66C-500.26,-36.48 -500.46,-37.48 -500.46,-38.65C-500.46,-39.97 -500.24,-41.05 -499.79,-41.89C-499.34,-42.73 -498.75,-43.41 -498.01,-43.94C-497.28,-44.46 -496.44,-44.86 -495.49,-45.13C-494.55,-45.40 -493.58,-45.63 -492.59,-45.81C-491.54,-46.02 -490.54,-46.17 -489.60,-46.28C-488.65,-46.38 -487.82,-46.53 -487.10,-46.73C-486.38,-46.92 -485.81,-47.21 -485.39,-47.58C-484.97,-47.96 -484.76,-48.51 -484.76,-49.23C-484.76,-50.07 -484.91,-50.74 -485.23,-51.25C-485.55,-51.76 -485.95,-52.15 -486.45,-52.42C-486.94,-52.69 -487.50,-52.87 -488.11,-52.96C-488.73,-53.05 -489.33,-53.10 -489.93,-53.10C-491.55,-53.10 -492.90,-52.79 -493.98,-52.17C-495.06,-51.56 -495.65,-50.40 -495.74,-48.69L-499.56,-48.69C-499.50,-50.13 -499.20,-51.34 -498.66,-52.33C-498.12,-53.32 -497.40,-54.12 -496.50,-54.74C-495.60,-55.35 -494.58,-55.80 -493.42,-56.07C-492.27,-56.34 -491.03,-56.47 -489.71,-56.47C-488.66,-56.47 -487.62,-56.40 -486.58,-56.25C-485.55,-56.10 -484.61,-55.79 -483.77,-55.32C-482.93,-54.86 -482.25,-54.21 -481.74,-53.37C-481.23,-52.53 -480.98,-51.43 -480.98,-50.08L-480.98,-38.11C-480.98,-37.21 -480.93,-36.55 -480.82,-36.13C-480.72,-35.71 -480.36,-35.50 -479.76,-35.50C-479.43,-35.50 -479.04,-35.58 -478.59,-35.73ZM-484.80,-44.68C-485.28,-44.32 -485.91,-44.06 -486.69,-43.89C-487.47,-43.73 -488.29,-43.59 -489.15,-43.49C-490.00,-43.38 -490.86,-43.26 -491.73,-43.13C-492.60,-42.99 -493.38,-42.78 -494.07,-42.48C-494.76,-42.18 -495.33,-41.75 -495.76,-41.19C-496.20,-40.64 -496.41,-39.88 -496.41,-38.92C-496.41,-38.29 -496.29,-37.76 -496.03,-37.32C-495.78,-36.89 -495.45,-36.54 -495.04,-36.27C-494.64,-36.00 -494.16,-35.80 -493.62,-35.68C-493.08,-35.56 -492.51,-35.50 -491.91,-35.50C-490.65,-35.50 -489.57,-35.67 -488.67,-36.02C-487.77,-36.36 -487.04,-36.80 -486.47,-37.32C-485.90,-37.85 -485.48,-38.42 -485.21,-39.03C-484.94,-39.65 -484.80,-40.23 -484.80,-40.77Z" fill="#5d6d7e"/>
        <path d="M-473.08,-28.57L-470.87,-28.57C-470.89,-29.13 -470.84,-29.68 -470.70,-30.23C-470.58,-30.77 -470.36,-31.26 -470.07,-31.69C-469.77,-32.13 -469.40,-32.48 -468.94,-32.75C-468.48,-33.02 -467.93,-33.15 -467.29,-33.15C-466.80,-33.15 -466.34,-33.07 -465.91,-32.92C-465.47,-32.76 -465.10,-32.54 -464.78,-32.24C-464.46,-31.95 -464.20,-31.59 -464.01,-31.19C-463.82,-30.78 -463.72,-30.33 -463.72,-29.82C-463.72,-29.18 -463.82,-28.62 -464.02,-28.13C-464.22,-27.65 -464.52,-27.20 -464.91,-26.78C-465.30,-26.36 -465.79,-25.95 -466.38,-25.55C-466.97,-25.14 -467.65,-24.69 -468.43,-24.21C-469.07,-23.83 -469.69,-23.42 -470.28,-22.98C-470.87,-22.55 -471.39,-22.05 -471.86,-21.48C-472.33,-20.90 -472.72,-20.23 -473.02,-19.46C-473.32,-18.69 -473.52,-17.76 -473.60,-16.67L-461.57,-16.67L-461.57,-18.62L-471.03,-18.62C-470.93,-19.19 -470.71,-19.70 -470.37,-20.14C-470.03,-20.58 -469.62,-20.99 -469.15,-21.37C-468.67,-21.75 -468.14,-22.11 -467.57,-22.45C-467.00,-22.79 -466.43,-23.13 -465.86,-23.48C-465.28,-23.84 -464.73,-24.22 -464.19,-24.62C-463.65,-25.02 -463.18,-25.47 -462.76,-25.96C-462.35,-26.46 -462.01,-27.01 -461.76,-27.64C-461.51,-28.26 -461.38,-28.98 -461.38,-29.80C-461.38,-30.66 -461.54,-31.43 -461.84,-32.08C-462.14,-32.74 -462.55,-33.29 -463.07,-33.74C-463.59,-34.18 -464.20,-34.52 -464.91,-34.75C-465.61,-34.98 -466.36,-35.10 -467.16,-35.10C-468.13,-35.10 -468.99,-34.94 -469.76,-34.61C-470.52,-34.28 -471.16,-33.82 -471.67,-33.24C-472.18,-32.66 -472.56,-31.97 -472.80,-31.17C-473.04,-30.38 -473.14,-29.51 -473.08,-28.57Z" fill="#5d6d7e"/>
        <path d="M-470.23,-77.90L-470.23,-79.67L-475.09,-79.67L-475.09,-55.54L-470.23,-55.54L-470.23,-57.31L-473.01,-57.31L-473.01,-77.90ZM-460.97,-60.67L-460.97,-79.10L-462.66,-79.10C-462.78,-78.41 -463.01,-77.84 -463.34,-77.38C-463.67,-76.93 -464.07,-76.58 -464.55,-76.32C-465.02,-76.06 -465.56,-75.88 -466.15,-75.79C-466.74,-75.69 -467.34,-75.64 -467.97,-75.64L-467.97,-73.87L-463.18,-73.87L-463.18,-60.67ZM-455.77,-57.31L-455.77,-55.54L-450.91,-55.54L-450.91,-79.67L-455.77,-79.67L-455.77,-77.90L-452.99,-77.90L-452.99,-57.31Z" fill="#5d6d7e"/>
        <path d="M-428,85.67C-428,113.28 -450.39,135.67 -478,135.67C-505.61,135.67 -528,113.28 -528,85.67C-528,58.05 -505.61,35.67 -478,35.67C-450.39,35.67 -428,58.05 -428,85.67Z" stroke-width="4" fill="#ffffff" stroke="#5d6d7e"/>
        <path d="M-478.59,101.58C-479.25,101.97 -480.17,102.16 -481.34,102.16C-482.33,102.16 -483.12,101.88 -483.70,101.33C-484.29,100.77 -484.58,99.87 -484.58,98.61C-485.63,99.87 -486.85,100.77 -488.25,101.33C-489.64,101.88 -491.15,102.16 -492.77,102.16C-493.82,102.16 -494.82,102.04 -495.76,101.80C-496.70,101.56 -497.52,101.19 -498.21,100.68C-498.90,100.17 -499.45,99.50 -499.85,98.67C-500.26,97.85 -500.46,96.85 -500.46,95.68C-500.46,94.36 -500.24,93.28 -499.79,92.44C-499.34,91.60 -498.75,90.92 -498.01,90.39C-497.28,89.87 -496.44,89.47 -495.49,89.20C-494.55,88.93 -493.58,88.71 -492.59,88.53C-491.54,88.32 -490.54,88.16 -489.60,88.05C-488.65,87.95 -487.82,87.80 -487.10,87.60C-486.38,87.41 -485.81,87.12 -485.39,86.75C-484.97,86.37 -484.76,85.83 -484.76,85.11C-484.76,84.27 -484.91,83.59 -485.23,83.08C-485.55,82.57 -485.95,82.18 -486.45,81.91C-486.94,81.64 -487.50,81.46 -488.11,81.37C-488.73,81.28 -489.33,81.24 -489.93,81.24C-491.55,81.24 -492.90,81.54 -493.98,82.16C-495.06,82.77 -495.65,83.94 -495.74,85.65L-499.56,85.65C-499.50,84.21 -499.20,82.99 -498.66,82.00C-498.12,81.01 -497.40,80.21 -496.50,79.59C-495.60,78.98 -494.58,78.54 -493.42,78.27C-492.27,78.00 -491.03,77.86 -489.71,77.86C-488.66,77.86 -487.62,77.94 -486.58,78.09C-485.55,78.24 -484.61,78.54 -483.77,79.01C-482.93,79.47 -482.25,80.13 -481.74,80.97C-481.23,81.81 -480.98,82.90 -480.98,84.25L-480.98,96.22C-480.98,97.12 -480.93,97.78 -480.82,98.20C-480.72,98.62 -480.36,98.83 -479.76,98.83C-479.43,98.83 -479.04,98.76 -478.59,98.61ZM-484.80,89.65C-485.28,90.01 -485.91,90.27 -486.69,90.44C-487.47,90.60 -488.29,90.74 -489.15,90.84C-490.00,90.95 -490.86,91.07 -491.73,91.20C-492.60,91.34 -493.38,91.56 -494.07,91.86C-494.76,92.16 -495.33,92.58 -495.76,93.14C-496.20,93.69 -496.41,94.45 -496.41,95.41C-496.41,96.04 -496.29,96.57 -496.03,97.01C-495.78,97.44 -495.45,97.80 -495.04,98.07C-494.64,98.34 -494.16,98.53 -493.62,98.65C-493.08,98.77 -492.51,98.83 -491.91,98.83C-490.65,98.83 -489.57,98.66 -488.67,98.31C-487.77,97.97 -487.04,97.53 -486.47,97.01C-485.90,96.48 -485.48,95.91 -485.21,95.30C-484.94,94.68 -484.80,94.11 -484.80,93.57Z" fill="#5d6d7e"/>
        <path d="M-475.68,114.78L-475.68,117.67L-472.80,117.67L-472.80,114.78ZM-468.46,114.78L-468.46,117.67L-465.57,117.67L-465.57,114.78ZM-461.23,114.78L-461.23,117.67L-458.34,117.67L-458.34,114.78Z" fill="#5d6d7e"/>
        <path d="M-470.23,56.43L-470.23,54.66L-475.09,54.66L-475.09,78.79L-470.23,78.79L-470.23,77.02L-473.01,77.02L-473.01,56.43ZM-460.97,73.67L-460.97,55.23L-462.66,55.23C-462.78,55.93 -463.01,56.50 -463.34,56.95C-463.67,57.40 -464.07,57.75 -464.55,58.01C-465.02,58.27 -465.56,58.45 -466.15,58.55C-466.74,58.64 -467.34,58.69 -467.97,58.69L-467.97,60.46L-463.18,60.46L-463.18,73.67ZM-455.77,77.02L-455.77,78.79L-450.91,78.79L-450.91,54.66L-455.77,54.66L-455.77,56.43L-452.99,56.43L-452.99,77.02Z" fill="#5d6d7e"/>
        <path d="M-428,220C-428,247.61 -450.39,270 -478,270C-505.61,270 -528,247.61 -528,220C-528,192.39 -505.61,170 -478,170C-450.39,170 -428,192.39 -428,220Z" stroke-width="4" fill="#ffffff" stroke="#5d6d7e"/>
        <path d="M-478.59,235.91C-479.25,236.30 -480.17,236.50 -481.34,236.50C-482.33,236.50 -483.12,236.22 -483.70,235.66C-484.29,235.11 -484.58,234.20 -484.58,232.94C-485.63,234.20 -486.85,235.11 -488.25,235.66C-489.64,236.22 -491.15,236.50 -492.77,236.50C-493.82,236.50 -494.82,236.38 -495.76,236.14C-496.70,235.89 -497.52,235.52 -498.21,235.01C-498.90,234.50 -499.45,233.83 -499.85,233.01C-500.26,232.18 -500.46,231.19 -500.46,230.01C-500.46,228.69 -500.24,227.61 -499.79,226.77C-499.34,225.94 -498.75,225.25 -498.01,224.73C-497.28,224.20 -496.44,223.80 -495.49,223.53C-494.55,223.27 -493.58,223.04 -492.59,222.86C-491.54,222.65 -490.54,222.49 -489.60,222.39C-488.65,222.28 -487.82,222.13 -487.10,221.94C-486.38,221.74 -485.81,221.46 -485.39,221.08C-484.97,220.71 -484.76,220.16 -484.76,219.44C-484.76,218.60 -484.91,217.93 -485.23,217.42C-485.55,216.91 -485.95,216.52 -486.45,216.25C-486.94,215.98 -487.50,215.80 -488.11,215.70C-488.73,215.61 -489.33,215.57 -489.93,215.57C-491.55,215.57 -492.90,215.88 -493.98,216.49C-495.06,217.11 -495.65,218.27 -495.74,219.98L-499.56,219.98C-499.50,218.54 -499.20,217.32 -498.66,216.33C-498.12,215.34 -497.40,214.54 -496.50,213.93C-495.60,213.31 -494.58,212.87 -493.42,212.60C-492.27,212.33 -491.03,212.19 -489.71,212.19C-488.66,212.19 -487.62,212.27 -486.58,212.42C-485.55,212.57 -484.61,212.88 -483.77,213.34C-482.93,213.81 -482.25,214.46 -481.74,215.30C-481.23,216.14 -480.98,217.23 -480.98,218.58L-480.98,230.56C-480.98,231.46 -480.93,232.12 -480.82,232.53C-480.72,232.95 -480.36,233.16 -479.76,233.16C-479.43,233.16 -479.04,233.09 -478.59,232.94ZM-484.80,223.98C-485.28,224.34 -485.91,224.61 -486.69,224.77C-487.47,224.94 -488.29,225.07 -489.15,225.18C-490.00,225.28 -490.86,225.40 -491.73,225.54C-492.60,225.67 -493.38,225.89 -494.07,226.19C-494.76,226.49 -495.33,226.92 -495.76,227.47C-496.20,228.03 -496.41,228.79 -496.41,229.74C-496.41,230.38 -496.29,230.91 -496.03,231.34C-495.78,231.78 -495.45,232.13 -495.04,232.40C-494.64,232.67 -494.16,232.87 -493.62,232.98C-493.08,233.10 -492.51,233.16 -491.91,233.16C-490.65,233.16 -489.57,232.99 -488.67,232.65C-487.77,232.30 -487.04,231.87 -486.47,231.34C-485.90,230.82 -485.48,230.25 -485.21,229.63C-484.94,229.02 -484.80,228.44 -484.80,227.90Z" fill="#5d6d7e"/>
        <path d="M-479.79,238.56L-479.79,252L-477.58,252L-477.58,244.41C-477.58,243.80 -477.50,243.24 -477.34,242.73C-477.17,242.22 -476.92,241.77 -476.59,241.39C-476.26,241.01 -475.85,240.72 -475.36,240.51C-474.87,240.30 -474.28,240.20 -473.60,240.20C-472.75,240.20 -472.09,240.44 -471.60,240.92C-471.12,241.41 -470.87,242.07 -470.87,242.90L-470.87,252L-468.66,252L-468.66,243.16C-468.66,242.43 -468.74,241.77 -468.89,241.17C-469.03,240.57 -469.29,240.06 -469.65,239.62C-470.02,239.19 -470.49,238.85 -471.08,238.61C-471.67,238.37 -472.41,238.25 -473.29,238.25C-475.29,238.25 -476.74,239.06 -477.66,240.69L-477.71,240.69L-477.71,238.56ZM-457.74,252L-457.74,233.57L-459.43,233.57C-459.56,234.26 -459.78,234.83 -460.11,235.28C-460.44,235.73 -460.84,236.09 -461.32,236.35C-461.80,236.61 -462.33,236.79 -462.92,236.88C-463.51,236.98 -464.11,237.02 -464.74,237.02L-464.74,238.79L-459.95,238.79L-459.95,252Z" fill="#5d6d7e"/>
        <path d="M-470.23,190.76L-470.23,188.99L-475.09,188.99L-475.09,213.12L-470.23,213.12L-470.23,211.35L-473.01,211.35L-473.01,190.76ZM-460.97,208L-460.97,189.57L-462.66,189.57C-462.78,190.26 -463.01,190.83 -463.34,191.28C-463.67,191.73 -464.07,192.09 -464.55,192.35C-465.02,192.61 -465.56,192.79 -466.15,192.88C-466.74,192.98 -467.34,193.02 -467.97,193.02L-467.97,194.79L-463.18,194.79L-463.18,208ZM-455.77,211.35L-455.77,213.12L-450.91,213.12L-450.91,188.99L-455.77,188.99L-455.77,190.76L-452.99,190.76L-452.99,211.35Z" fill="#5d6d7e"/>
        <path d="M-34,-322C-34,-294.39 -56.39,-272 -84,-272C-111.61,-272 -134,-294.39 -134,-322C-134,-349.61 -111.61,-372 -84,-372C-56.39,-372 -34,-349.61 -34,-322Z" stroke-width="4" fill="#ffffff" stroke="#5d6d7e"/>
        <path d="M-84.59,-306.09C-85.25,-305.70 -86.17,-305.50 -87.34,-305.50C-88.33,-305.50 -89.12,-305.78 -89.70,-306.34C-90.29,-306.89 -90.58,-307.80 -90.58,-309.06C-91.63,-307.80 -92.85,-306.89 -94.25,-306.34C-95.64,-305.78 -97.15,-305.50 -98.77,-305.50C-99.82,-305.50 -100.82,-305.62 -101.76,-305.86C-102.70,-306.11 -103.52,-306.48 -104.21,-306.99C-104.90,-307.50 -105.45,-308.17 -105.85,-308.99C-106.26,-309.82 -106.46,-310.81 -106.46,-311.99C-106.46,-313.31 -106.24,-314.39 -105.79,-315.23C-105.34,-316.06 -104.75,-316.75 -104.01,-317.27C-103.28,-317.80 -102.44,-318.20 -101.49,-318.47C-100.55,-318.73 -99.58,-318.96 -98.59,-319.14C-97.54,-319.35 -96.54,-319.51 -95.60,-319.61C-94.65,-319.72 -93.82,-319.87 -93.10,-320.06C-92.38,-320.26 -91.81,-320.54 -91.39,-320.92C-90.97,-321.29 -90.76,-321.84 -90.76,-322.56C-90.76,-323.40 -90.91,-324.07 -91.23,-324.58C-91.55,-325.09 -91.95,-325.48 -92.45,-325.75C-92.94,-326.02 -93.50,-326.20 -94.11,-326.30C-94.73,-326.39 -95.33,-326.43 -95.93,-326.43C-97.55,-326.43 -98.90,-326.12 -99.98,-325.51C-101.06,-324.89 -101.65,-323.73 -101.74,-322.02L-105.56,-322.02C-105.50,-323.46 -105.20,-324.68 -104.66,-325.67C-104.12,-326.66 -103.40,-327.46 -102.50,-328.07C-101.60,-328.69 -100.58,-329.13 -99.42,-329.40C-98.27,-329.67 -97.03,-329.81 -95.71,-329.81C-94.66,-329.81 -93.62,-329.73 -92.58,-329.58C-91.55,-329.43 -90.61,-329.12 -89.77,-328.66C-88.93,-328.19 -88.25,-327.54 -87.74,-326.70C-87.23,-325.86 -86.98,-324.77 -86.98,-323.42L-86.98,-311.44C-86.98,-310.54 -86.93,-309.88 -86.82,-309.47C-86.72,-309.05 -86.36,-308.84 -85.76,-308.84C-85.43,-308.84 -85.04,-308.91 -84.59,-309.06ZM-90.80,-318.02C-91.28,-317.66 -91.91,-317.39 -92.69,-317.23C-93.47,-317.06 -94.29,-316.93 -95.15,-316.82C-96.00,-316.72 -96.86,-316.60 -97.73,-316.46C-98.60,-316.33 -99.38,-316.11 -100.07,-315.81C-100.76,-315.51 -101.33,-315.08 -101.76,-314.53C-102.20,-313.97 -102.41,-313.21 -102.41,-312.26C-102.41,-311.62 -102.29,-311.09 -102.03,-310.66C-101.78,-310.22 -101.45,-309.87 -101.04,-309.60C-100.64,-309.33 -100.16,-309.13 -99.62,-309.02C-99.08,-308.90 -98.51,-308.84 -97.91,-308.84C-96.65,-308.84 -95.57,-309.01 -94.67,-309.35C-93.77,-309.70 -93.04,-310.13 -92.47,-310.66C-91.90,-311.18 -91.48,-311.75 -91.21,-312.37C-90.94,-312.98 -90.80,-313.56 -90.80,-314.10Z" fill="#5d6d7e"/>
        <path d="M-70.97,-290L-70.97,-308.43L-72.66,-308.43C-72.78,-307.74 -73.01,-307.17 -73.34,-306.72C-73.67,-306.27 -74.07,-305.91 -74.55,-305.65C-75.02,-305.39 -75.56,-305.21 -76.15,-305.12C-76.74,-305.02 -77.34,-304.98 -77.97,-304.98L-77.97,-303.21L-73.18,-303.21L-73.18,-290Z" fill="#5d6d7e"/>
        <path d="M-84.17,-351.24L-84.17,-353.01L-89.03,-353.01L-89.03,-328.88L-84.17,-328.88L-84.17,-330.65L-86.95,-330.65L-86.95,-351.24ZM-82.38,-352.56L-82.38,-334L-80.17,-334L-80.17,-352.56ZM-77.10,-342.27L-77.10,-340.19L-69.59,-340.19L-69.59,-342.27ZM-59.03,-334L-59.03,-352.43L-60.72,-352.43C-60.84,-351.74 -61.07,-351.17 -61.40,-350.72C-61.72,-350.27 -62.13,-349.91 -62.60,-349.65C-63.08,-349.39 -63.61,-349.21 -64.20,-349.12C-64.79,-349.02 -65.40,-348.98 -66.02,-348.98L-66.02,-347.21L-61.24,-347.21L-61.24,-334ZM-53.83,-330.65L-53.83,-328.88L-48.97,-328.88L-48.97,-353.01L-53.83,-353.01L-53.83,-351.24L-51.05,-351.24L-51.05,-330.65Z" fill="#5d6d7e"/>
        <path d="M-34,-189.60C-34,-161.99 -56.39,-139.60 -84,-139.60C-111.61,-139.60 -134,-161.99 -134,-189.60C-134,-217.21 -111.61,-239.60 -84,-239.60C-56.39,-239.60 -34,-217.21 -34,-189.60Z" stroke-width="4" fill="#ffffff" stroke="#5d6d7e"/>
        <path d="M-84.59,-173.69C-85.25,-173.30 -86.17,-173.10 -87.34,-173.10C-88.33,-173.10 -89.12,-173.38 -89.70,-173.94C-90.29,-174.49 -90.58,-175.40 -90.58,-176.66C-91.63,-175.40 -92.85,-174.49 -94.25,-173.94C-95.64,-173.38 -97.15,-173.10 -98.77,-173.10C-99.82,-173.10 -100.82,-173.22 -101.76,-173.46C-102.70,-173.71 -103.52,-174.08 -104.21,-174.59C-104.90,-175.10 -105.45,-175.77 -105.85,-176.59C-106.26,-177.42 -106.46,-178.41 -106.46,-179.59C-106.46,-180.91 -106.24,-181.99 -105.79,-182.83C-105.34,-183.66 -104.75,-184.35 -104.01,-184.87C-103.28,-185.40 -102.44,-185.80 -101.49,-186.07C-100.55,-186.33 -99.58,-186.56 -98.59,-186.74C-97.54,-186.95 -96.54,-187.11 -95.60,-187.21C-94.65,-187.32 -93.82,-187.47 -93.10,-187.66C-92.38,-187.86 -91.81,-188.14 -91.39,-188.52C-90.97,-188.89 -90.76,-189.44 -90.76,-190.16C-90.76,-191.00 -90.91,-191.67 -91.23,-192.18C-91.55,-192.69 -91.95,-193.08 -92.45,-193.35C-92.94,-193.62 -93.50,-193.80 -94.11,-193.90C-94.73,-193.99 -95.33,-194.03 -95.93,-194.03C-97.55,-194.03 -98.90,-193.72 -99.98,-193.11C-101.06,-192.49 -101.65,-191.33 -101.74,-189.62L-105.56,-189.62C-105.50,-191.06 -105.20,-192.28 -104.66,-193.27C-104.12,-194.26 -103.40,-195.06 -102.50,-195.67C-101.60,-196.29 -100.58,-196.73 -99.42,-197.00C-98.27,-197.27 -97.03,-197.41 -95.71,-197.41C-94.66,-197.41 -93.62,-197.33 -92.58,-197.18C-91.55,-197.03 -90.61,-196.72 -89.77,-196.26C-88.93,-195.79 -88.25,-195.14 -87.74,-194.30C-87.23,-193.46 -86.98,-192.37 -86.98,-191.02L-86.98,-179.04C-86.98,-178.14 -86.93,-177.48 -86.82,-177.07C-86.72,-176.65 -86.36,-176.44 -85.76,-176.44C-85.43,-176.44 -85.04,-176.51 -84.59,-176.66ZM-90.80,-185.62C-91.28,-185.26 -91.91,-184.99 -92.69,-184.83C-93.47,-184.66 -94.29,-184.53 -95.15,-184.42C-96.00,-184.32 -96.86,-184.20 -97.73,-184.06C-98.60,-183.93 -99.38,-183.71 -100.07,-183.41C-100.76,-183.11 -101.33,-182.68 -101.76,-182.13C-102.20,-181.57 -102.41,-180.81 -102.41,-179.86C-102.41,-179.22 -102.29,-178.69 -102.03,-178.26C-101.78,-177.82 -101.45,-177.47 -101.04,-177.20C-100.64,-176.93 -100.16,-176.73 -99.62,-176.62C-99.08,-176.50 -98.51,-176.44 -97.91,-176.44C-96.65,-176.44 -95.57,-176.61 -94.67,-176.95C-93.77,-177.30 -93.04,-177.73 -92.47,-178.26C-91.90,-178.78 -91.48,-179.35 -91.21,-179.97C-90.94,-180.58 -90.80,-181.16 -90.80,-181.70Z" fill="#5d6d7e"/>
        <path d="M-79.08,-169.51L-76.87,-169.51C-76.89,-170.06 -76.84,-170.61 -76.70,-171.16C-76.58,-171.71 -76.36,-172.19 -76.07,-172.63C-75.77,-173.06 -75.40,-173.41 -74.94,-173.68C-74.48,-173.95 -73.93,-174.08 -73.29,-174.08C-72.80,-174.08 -72.34,-174.01 -71.91,-173.85C-71.47,-173.69 -71.10,-173.47 -70.78,-173.17C-70.46,-172.88 -70.20,-172.53 -70.01,-172.12C-69.82,-171.71 -69.72,-171.26 -69.72,-170.76C-69.72,-170.11 -69.82,-169.55 -70.02,-169.07C-70.22,-168.58 -70.52,-168.13 -70.91,-167.71C-71.30,-167.30 -71.79,-166.89 -72.38,-166.48C-72.97,-166.07 -73.65,-165.63 -74.43,-165.14C-75.07,-164.76 -75.69,-164.35 -76.28,-163.92C-76.87,-163.48 -77.39,-162.98 -77.86,-162.41C-78.33,-161.84 -78.72,-161.17 -79.02,-160.40C-79.32,-159.62 -79.52,-158.69 -79.60,-157.60L-67.57,-157.60L-67.57,-159.55L-77.03,-159.55C-76.93,-160.12 -76.71,-160.63 -76.37,-161.07C-76.03,-161.51 -75.62,-161.92 -75.15,-162.31C-74.67,-162.69 -74.14,-163.05 -73.57,-163.38C-73.00,-163.72 -72.43,-164.07 -71.86,-164.41C-71.28,-164.78 -70.73,-165.16 -70.19,-165.56C-69.65,-165.95 -69.18,-166.40 -68.76,-166.90C-68.35,-167.39 -68.01,-167.95 -67.76,-168.57C-67.51,-169.20 -67.38,-169.92 -67.38,-170.73C-67.38,-171.60 -67.54,-172.36 -67.84,-173.02C-68.14,-173.68 -68.55,-174.23 -69.07,-174.67C-69.59,-175.11 -70.20,-175.45 -70.91,-175.68C-71.61,-175.92 -72.36,-176.03 -73.16,-176.03C-74.13,-176.03 -74.99,-175.87 -75.76,-175.54C-76.52,-175.21 -77.16,-174.76 -77.67,-174.18C-78.18,-173.59 -78.56,-172.91 -78.80,-172.11C-79.04,-171.31 -79.14,-170.44 -79.08,-169.51Z" fill="#5d6d7e"/>
        <path d="M-84.17,-218.84L-84.17,-220.61L-89.03,-220.61L-89.03,-196.48L-84.17,-196.48L-84.17,-198.25L-86.95,-198.25L-86.95,-218.84ZM-82.38,-220.16L-82.38,-201.60L-80.17,-201.60L-80.17,-220.16ZM-77.10,-209.87L-77.10,-207.79L-69.59,-207.79L-69.59,-209.87ZM-59.03,-201.60L-59.03,-220.03L-60.72,-220.03C-60.84,-219.34 -61.07,-218.77 -61.40,-218.32C-61.72,-217.87 -62.13,-217.51 -62.60,-217.25C-63.08,-216.99 -63.61,-216.81 -64.20,-216.72C-64.79,-216.62 -65.40,-216.58 -66.02,-216.58L-66.02,-214.81L-61.24,-214.81L-61.24,-201.60ZM-53.83,-198.25L-53.83,-196.48L-48.97,-196.48L-48.97,-220.61L-53.83,-220.61L-53.83,-218.84L-51.05,-218.84L-51.05,-198.25Z" fill="#5d6d7e"/>
        <path d="M-34,-57.20C-34,-29.59 -56.39,-7.20 -84,-7.20C-111.61,-7.20 -134,-29.59 -134,-57.20C-134,-84.81 -111.61,-107.20 -84,-107.20C-56.39,-107.20 -34,-84.81 -34,-57.20Z" stroke-width="4" fill="#ffffff" stroke="#5d6d7e"/>
        <path d="M-84.59,-41.29C-85.25,-40.90 -86.17,-40.70 -87.34,-40.70C-88.33,-40.70 -89.12,-40.98 -89.70,-41.54C-90.29,-42.09 -90.58,-43.00 -90.58,-44.26C-91.63,-43.00 -92.85,-42.09 -94.25,-41.54C-95.64,-40.98 -97.15,-40.70 -98.77,-40.70C-99.82,-40.70 -100.82,-40.82 -101.76,-41.06C-102.70,-41.31 -103.52,-41.68 -104.21,-42.19C-104.90,-42.70 -105.45,-43.37 -105.85,-44.19C-106.26,-45.02 -106.46,-46.01 -106.46,-47.19C-106.46,-48.51 -106.24,-49.59 -105.79,-50.43C-105.34,-51.26 -104.75,-51.95 -104.01,-52.47C-103.28,-53.00 -102.44,-53.40 -101.49,-53.67C-100.55,-53.93 -99.58,-54.16 -98.59,-54.34C-97.54,-54.55 -96.54,-54.71 -95.60,-54.81C-94.65,-54.92 -93.82,-55.07 -93.10,-55.26C-92.38,-55.46 -91.81,-55.74 -91.39,-56.12C-90.97,-56.49 -90.76,-57.04 -90.76,-57.76C-90.76,-58.60 -90.91,-59.27 -91.23,-59.78C-91.55,-60.29 -91.95,-60.68 -92.45,-60.95C-92.94,-61.22 -93.50,-61.40 -94.11,-61.50C-94.73,-61.59 -95.33,-61.63 -95.93,-61.63C-97.55,-61.63 -98.90,-61.32 -99.98,-60.71C-101.06,-60.09 -101.65,-58.93 -101.74,-57.22L-105.56,-57.22C-105.50,-58.66 -105.20,-59.88 -104.66,-60.87C-104.12,-61.86 -103.40,-62.66 -102.50,-63.27C-101.60,-63.89 -100.58,-64.33 -99.42,-64.60C-98.27,-64.87 -97.03,-65.01 -95.71,-65.01C-94.66,-65.01 -93.62,-64.93 -92.58,-64.78C-91.55,-64.63 -90.61,-64.32 -89.77,-63.86C-88.93,-63.39 -88.25,-62.74 -87.74,-61.90C-87.23,-61.06 -86.98,-59.97 -86.98,-58.62L-86.98,-46.64C-86.98,-45.74 -86.93,-45.08 -86.82,-44.67C-86.72,-44.25 -86.36,-44.04 -85.76,-44.04C-85.43,-44.04 -85.04,-44.11 -84.59,-44.26ZM-90.80,-53.22C-91.28,-52.86 -91.91,-52.59 -92.69,-52.43C-93.47,-52.26 -94.29,-52.13 -95.15,-52.02C-96.00,-51.92 -96.86,-51.80 -97.73,-51.66C-98.60,-51.53 -99.38,-51.31 -100.07,-51.01C-100.76,-50.71 -101.33,-50.28 -101.76,-49.73C-102.20,-49.17 -102.41,-48.41 -102.41,-47.46C-102.41,-46.82 -102.29,-46.29 -102.03,-45.86C-101.78,-45.42 -101.45,-45.07 -101.04,-44.80C-100.64,-44.53 -100.16,-44.33 -99.62,-44.22C-99.08,-44.10 -98.51,-44.04 -97.91,-44.04C-96.65,-44.04 -95.57,-44.21 -94.67,-44.55C-93.77,-44.90 -93.04,-45.33 -92.47,-45.86C-91.90,-46.38 -91.48,-46.95 -91.21,-47.57C-90.94,-48.18 -90.80,-48.76 -90.80,-49.30Z" fill="#5d6d7e"/>
        <path d="M-81.68,-28.09L-81.68,-25.20L-78.80,-25.20L-78.80,-28.09ZM-74.46,-28.09L-74.46,-25.20L-71.57,-25.20L-71.57,-28.09ZM-67.23,-28.09L-67.23,-25.20L-64.34,-25.20L-64.34,-28.09Z" fill="#5d6d7e"/>
        <path d="M-84.17,-86.44L-84.17,-88.21L-89.03,-88.21L-89.03,-64.08L-84.17,-64.08L-84.17,-65.85L-86.95,-65.85L-86.95,-86.44ZM-82.38,-87.76L-82.38,-69.20L-80.17,-69.20L-80.17,-87.76ZM-77.10,-77.47L-77.10,-75.39L-69.59,-75.39L-69.59,-77.47ZM-59.03,-69.20L-59.03,-87.63L-60.72,-87.63C-60.84,-86.94 -61.07,-86.37 -61.40,-85.92C-61.72,-85.47 -62.13,-85.11 -62.60,-84.85C-63.08,-84.59 -63.61,-84.41 -64.20,-84.32C-64.79,-84.22 -65.40,-84.18 -66.02,-84.18L-66.02,-82.41L-61.24,-82.41L-61.24,-69.20ZM-53.83,-65.85L-53.83,-64.08L-48.97,-64.08L-48.97,-88.21L-53.83,-88.21L-53.83,-86.44L-51.05,-86.44L-51.05,-65.85Z" fill="#5d6d7e"/>
        <path d="M-34,75.20C-34,102.81 -56.39,125.20 -84,125.20C-111.61,125.20 -134,102.81 -134,75.20C-134,47.59 -111.61,25.20 -84,25.20C-56.39,25.20 -34,47.59 -34,75.20Z" stroke-width="4" fill="#ffffff" stroke="#5d6d7e"/>
        <path d="M-84.59,91.11C-85.25,91.50 -86.17,91.70 -87.34,91.70C-88.33,91.70 -89.12,91.42 -89.70,90.86C-90.29,90.31 -90.58,89.40 -90.58,88.14C-91.63,89.40 -92.85,90.31 -94.25,90.86C-95.64,91.42 -97.15,91.70 -98.77,91.70C-99.82,91.70 -100.82,91.58 -101.76,91.34C-102.70,91.09 -103.52,90.72 -104.21,90.21C-104.90,89.70 -105.45,89.03 -105.85,88.21C-106.26,87.38 -106.46,86.39 -106.46,85.21C-106.46,83.89 -106.24,82.81 -105.79,81.97C-105.34,81.14 -104.75,80.45 -104.01,79.93C-103.28,79.40 -102.44,79.00 -101.49,78.73C-100.55,78.47 -99.58,78.24 -98.59,78.06C-97.54,77.85 -96.54,77.69 -95.60,77.59C-94.65,77.48 -93.82,77.33 -93.10,77.14C-92.38,76.94 -91.81,76.66 -91.39,76.28C-90.97,75.91 -90.76,75.36 -90.76,74.64C-90.76,73.80 -90.91,73.13 -91.23,72.62C-91.55,72.11 -91.95,71.72 -92.45,71.45C-92.94,71.18 -93.50,71.00 -94.11,70.90C-94.73,70.81 -95.33,70.77 -95.93,70.77C-97.55,70.77 -98.90,71.08 -99.98,71.69C-101.06,72.31 -101.65,73.47 -101.74,75.18L-105.56,75.18C-105.50,73.74 -105.20,72.52 -104.66,71.53C-104.12,70.54 -103.40,69.74 -102.50,69.13C-101.60,68.51 -100.58,68.07 -99.42,67.80C-98.27,67.53 -97.03,67.39 -95.71,67.39C-94.66,67.39 -93.62,67.47 -92.58,67.62C-91.55,67.77 -90.61,68.08 -89.77,68.54C-88.93,69.01 -88.25,69.66 -87.74,70.50C-87.23,71.34 -86.98,72.43 -86.98,73.78L-86.98,85.76C-86.98,86.66 -86.93,87.32 -86.82,87.73C-86.72,88.15 -86.36,88.36 -85.76,88.36C-85.43,88.36 -85.04,88.29 -84.59,88.14ZM-90.80,79.18C-91.28,79.54 -91.91,79.81 -92.69,79.97C-93.47,80.14 -94.29,80.27 -95.15,80.38C-96.00,80.48 -96.86,80.60 -97.73,80.74C-98.60,80.87 -99.38,81.09 -100.07,81.39C-100.76,81.69 -101.33,82.12 -101.76,82.67C-102.20,83.23 -102.41,83.99 -102.41,84.94C-102.41,85.58 -102.29,86.11 -102.03,86.54C-101.78,86.98 -101.45,87.33 -101.04,87.60C-100.64,87.87 -100.16,88.07 -99.62,88.18C-99.08,88.30 -98.51,88.36 -97.91,88.36C-96.65,88.36 -95.57,88.19 -94.67,87.85C-93.77,87.50 -93.04,87.07 -92.47,86.54C-91.90,86.02 -91.48,85.45 -91.21,84.83C-90.94,84.22 -90.80,83.64 -90.80,83.10Z" fill="#5d6d7e"/>
        <path d="M-71.88,91.34L-71.88,88.64L-74.09,88.64L-74.09,91.34ZM-71.88,108.89L-71.88,93.76L-74.09,93.76L-74.09,108.53C-74.09,109.22 -74.18,109.70 -74.35,109.97C-74.53,110.24 -74.85,110.37 -75.34,110.37L-75.81,110.37C-75.88,110.37 -75.94,110.37 -76.00,110.36C-76.06,110.35 -76.14,110.34 -76.22,110.32L-76.22,112.22C-75.88,112.29 -75.50,112.32 -75.11,112.32C-74.12,112.32 -73.33,112.05 -72.75,111.50C-72.17,110.96 -71.88,110.09 -71.88,108.89Z" fill="#5d6d7e"/>
        <path d="M-84.17,45.96L-84.17,44.19L-89.03,44.19L-89.03,68.32L-84.17,68.32L-84.17,66.55L-86.95,66.55L-86.95,45.96ZM-82.38,44.64L-82.38,63.20L-80.17,63.20L-80.17,44.64ZM-77.10,54.93L-77.10,57.01L-69.59,57.01L-69.59,54.93ZM-59.03,63.20L-59.03,44.77L-60.72,44.77C-60.84,45.46 -61.07,46.03 -61.40,46.48C-61.72,46.93 -62.13,47.29 -62.60,47.55C-63.08,47.81 -63.61,47.99 -64.20,48.08C-64.79,48.18 -65.40,48.22 -66.02,48.22L-66.02,49.99L-61.24,49.99L-61.24,63.20ZM-53.83,66.55L-53.83,68.32L-48.97,68.32L-48.97,44.19L-53.83,44.19L-53.83,45.96L-51.05,45.96L-51.05,66.55Z" fill="#5d6d7e"/>
        <path d="M-34.00,207.60C-34.00,235.21 -56.39,257.60 -84.00,257.60C-111.61,257.60 -134.00,235.21 -134.00,207.60C-134.00,179.99 -111.61,157.60 -84.00,157.60C-56.39,157.60 -34.00,179.99 -34.00,207.60Z" stroke-width="4" fill="#ffffff" stroke="#5d6d7e"/>
        <path d="M-84.59,223.51C-85.25,223.90 -86.17,224.10 -87.34,224.10C-88.33,224.10 -89.12,223.82 -89.70,223.26C-90.29,222.71 -90.58,221.80 -90.58,220.54C-91.63,221.80 -92.85,222.71 -94.25,223.26C-95.64,223.82 -97.15,224.10 -98.77,224.10C-99.82,224.10 -100.82,223.98 -101.76,223.74C-102.70,223.49 -103.52,223.12 -104.21,222.61C-104.90,222.10 -105.45,221.43 -105.85,220.61C-106.26,219.78 -106.46,218.79 -106.46,217.61C-106.46,216.29 -106.24,215.21 -105.79,214.37C-105.34,213.54 -104.75,212.85 -104.01,212.33C-103.28,211.80 -102.44,211.40 -101.49,211.13C-100.55,210.87 -99.58,210.64 -98.59,210.46C-97.54,210.25 -96.54,210.09 -95.60,209.99C-94.65,209.88 -93.82,209.73 -93.10,209.54C-92.38,209.34 -91.81,209.06 -91.39,208.68C-90.97,208.31 -90.76,207.76 -90.76,207.04C-90.76,206.20 -90.91,205.53 -91.23,205.02C-91.55,204.51 -91.95,204.12 -92.45,203.85C-92.94,203.58 -93.50,203.40 -94.11,203.30C-94.73,203.21 -95.33,203.17 -95.93,203.17C-97.55,203.17 -98.90,203.48 -99.98,204.09C-101.06,204.71 -101.65,205.87 -101.74,207.58L-105.56,207.58C-105.50,206.14 -105.20,204.92 -104.66,203.93C-104.12,202.94 -103.40,202.14 -102.50,201.53C-101.60,200.91 -100.58,200.47 -99.42,200.20C-98.27,199.93 -97.03,199.79 -95.71,199.79C-94.66,199.79 -93.62,199.87 -92.58,200.02C-91.55,200.17 -90.61,200.48 -89.77,200.94C-88.93,201.41 -88.25,202.06 -87.74,202.90C-87.23,203.74 -86.98,204.83 -86.98,206.18L-86.98,218.16C-86.98,219.06 -86.93,219.72 -86.82,220.13C-86.72,220.55 -86.36,220.76 -85.76,220.76C-85.43,220.76 -85.04,220.69 -84.59,220.54ZM-90.80,211.58C-91.28,211.94 -91.91,212.21 -92.69,212.37C-93.47,212.54 -94.29,212.67 -95.15,212.78C-96.00,212.88 -96.86,213.00 -97.73,213.14C-98.60,213.27 -99.38,213.49 -100.07,213.79C-100.76,214.09 -101.33,214.52 -101.76,215.07C-102.20,215.63 -102.41,216.39 -102.41,217.34C-102.41,217.98 -102.29,218.51 -102.03,218.94C-101.78,219.38 -101.45,219.73 -101.04,220.00C-100.64,220.27 -100.16,220.47 -99.62,220.58C-99.08,220.70 -98.51,220.76 -97.91,220.76C-96.65,220.76 -95.57,220.59 -94.67,220.25C-93.77,219.90 -93.04,219.47 -92.47,218.94C-91.90,218.42 -91.48,217.85 -91.21,217.23C-90.94,216.62 -90.80,216.04 -90.80,215.50Z" fill="#5d6d7e"/>
        <path d="M-81.68,236.71L-81.68,239.60L-78.80,239.60L-78.80,236.71ZM-74.46,236.71L-74.46,239.60L-71.57,239.60L-71.57,236.71ZM-67.23,236.71L-67.23,239.60L-64.34,239.60L-64.34,236.71Z" fill="#5d6d7e"/>
        <path d="M-84.17,178.36L-84.17,176.59L-89.03,176.59L-89.03,200.72L-84.17,200.72L-84.17,198.95L-86.95,198.95L-86.95,178.36ZM-82.38,177.04L-82.38,195.60L-80.17,195.60L-80.17,177.04ZM-77.10,187.33L-77.10,189.41L-69.59,189.41L-69.59,187.33ZM-59.03,195.60L-59.03,177.17L-60.72,177.17C-60.84,177.86 -61.07,178.43 -61.40,178.88C-61.72,179.33 -62.13,179.69 -62.60,179.95C-63.08,180.21 -63.61,180.39 -64.20,180.48C-64.79,180.58 -65.40,180.62 -66.02,180.62L-66.02,182.39L-61.24,182.39L-61.24,195.60ZM-53.83,198.95L-53.83,200.72L-48.97,200.72L-48.97,176.59L-53.83,176.59L-53.83,178.36L-51.05,178.36L-51.05,198.95Z" fill="#5d6d7e"/>
        <path d="M-34.00,340C-34.00,367.61 -56.39,390 -84.00,390C-111.61,390 -134.00,367.61 -134.00,340C-134.00,312.39 -111.61,290 -84.00,290C-56.39,290 -34.00,312.39 -34.00,340Z" stroke-width="4" fill="#ffffff" stroke="#5d6d7e"/>
        <path d="M-84.59,355.91C-85.25,356.30 -86.17,356.50 -87.34,356.50C-88.33,356.50 -89.12,356.22 -89.70,355.66C-90.29,355.11 -90.58,354.20 -90.58,352.94C-91.63,354.20 -92.85,355.11 -94.25,355.66C-95.64,356.22 -97.15,356.50 -98.77,356.50C-99.82,356.50 -100.82,356.38 -101.76,356.14C-102.70,355.89 -103.52,355.52 -104.21,355.01C-104.90,354.50 -105.45,353.83 -105.85,353.01C-106.26,352.18 -106.46,351.19 -106.46,350.01C-106.46,348.69 -106.24,347.61 -105.79,346.77C-105.34,345.94 -104.75,345.25 -104.01,344.73C-103.28,344.20 -102.44,343.80 -101.49,343.53C-100.55,343.27 -99.58,343.04 -98.59,342.86C-97.54,342.65 -96.54,342.49 -95.60,342.39C-94.65,342.28 -93.82,342.13 -93.10,341.94C-92.38,341.74 -91.81,341.46 -91.39,341.08C-90.97,340.71 -90.76,340.16 -90.76,339.44C-90.76,338.60 -90.91,337.93 -91.23,337.42C-91.55,336.91 -91.95,336.52 -92.45,336.25C-92.94,335.98 -93.50,335.80 -94.11,335.70C-94.73,335.61 -95.33,335.57 -95.93,335.57C-97.55,335.57 -98.90,335.88 -99.98,336.49C-101.06,337.11 -101.65,338.27 -101.74,339.98L-105.56,339.98C-105.50,338.54 -105.20,337.32 -104.66,336.33C-104.12,335.34 -103.40,334.54 -102.50,333.93C-101.60,333.31 -100.58,332.87 -99.42,332.60C-98.27,332.33 -97.03,332.19 -95.71,332.19C-94.66,332.19 -93.62,332.27 -92.58,332.42C-91.55,332.57 -90.61,332.88 -89.77,333.34C-88.93,333.81 -88.25,334.46 -87.74,335.30C-87.23,336.14 -86.98,337.23 -86.98,338.58L-86.98,350.56C-86.98,351.46 -86.93,352.12 -86.82,352.53C-86.72,352.95 -86.36,353.16 -85.76,353.16C-85.43,353.16 -85.04,353.09 -84.59,352.94ZM-90.80,343.98C-91.28,344.34 -91.91,344.61 -92.69,344.77C-93.47,344.94 -94.29,345.07 -95.15,345.18C-96.00,345.28 -96.86,345.40 -97.73,345.54C-98.60,345.67 -99.38,345.89 -100.07,346.19C-100.76,346.49 -101.33,346.92 -101.76,347.47C-102.20,348.03 -102.41,348.79 -102.41,349.74C-102.41,350.38 -102.29,350.91 -102.03,351.34C-101.78,351.78 -101.45,352.13 -101.04,352.40C-100.64,352.67 -100.16,352.87 -99.62,352.98C-99.08,353.10 -98.51,353.16 -97.91,353.16C-96.65,353.16 -95.57,352.99 -94.67,352.65C-93.77,352.30 -93.04,351.87 -92.47,351.34C-91.90,350.82 -91.48,350.25 -91.21,349.63C-90.94,349.02 -90.80,348.44 -90.80,347.90Z" fill="#5d6d7e"/>
        <path d="M-93.74,358.56L-93.74,372L-91.53,372L-91.53,364.41C-91.53,363.80 -91.44,363.24 -91.28,362.73C-91.11,362.22 -90.87,361.77 -90.54,361.39C-90.21,361.01 -89.80,360.72 -89.30,360.51C-88.81,360.30 -88.22,360.20 -87.55,360.20C-86.70,360.20 -86.03,360.44 -85.55,360.92C-85.06,361.41 -84.82,362.07 -84.82,362.90L-84.82,372L-82.61,372L-82.61,363.16C-82.61,362.43 -82.68,361.77 -82.83,361.17C-82.98,360.57 -83.23,360.06 -83.60,359.62C-83.96,359.19 -84.44,358.85 -85.03,358.61C-85.61,358.37 -86.35,358.25 -87.24,358.25C-89.23,358.25 -90.68,359.06 -91.60,360.69L-91.66,360.69L-91.66,358.56ZM-79.15,353.44L-79.15,372L-76.94,372L-76.94,353.44ZM-73.87,363.73L-73.87,365.81L-66.36,365.81L-66.36,363.73ZM-55.80,372L-55.80,353.57L-57.49,353.57C-57.61,354.26 -57.84,354.83 -58.17,355.28C-58.50,355.73 -58.90,356.09 -59.38,356.35C-59.85,356.61 -60.39,356.79 -60.98,356.88C-61.56,356.98 -62.17,357.02 -62.80,357.02L-62.80,358.79L-58.01,358.79L-58.01,372Z" fill="#5d6d7e"/>
        <path d="M-84.17,310.76L-84.17,308.99L-89.03,308.99L-89.03,333.12L-84.17,333.12L-84.17,331.35L-86.95,331.35L-86.95,310.76ZM-82.38,309.44L-82.38,328L-80.17,328L-80.17,309.44ZM-77.10,319.73L-77.10,321.81L-69.59,321.81L-69.59,319.73ZM-59.03,328L-59.03,309.57L-60.72,309.57C-60.84,310.26 -61.07,310.83 -61.40,311.28C-61.72,311.73 -62.13,312.09 -62.60,312.35C-63.08,312.61 -63.61,312.79 -64.20,312.88C-64.79,312.98 -65.40,313.02 -66.02,313.02L-66.02,314.79L-61.24,314.79L-61.24,328ZM-53.83,331.35L-53.83,333.12L-48.97,333.12L-48.97,308.99L-53.83,308.99L-53.83,310.76L-51.05,310.76L-51.05,331.35Z" fill="#5d6d7e"/>
        <path d="M344,-322C344,-294.39 321.61,-272 294,-272C266.39,-272 244,-294.39 244,-322C244,-349.61 266.39,-372 294,-372C321.61,-372 344,-349.61 344,-322Z" stroke-width="4" fill="#ffffff" stroke="#5d6d7e"/>
        <path d="M293.41,-306.09C292.75,-305.70 291.83,-305.50 290.66,-305.50C289.67,-305.50 288.88,-305.78 288.30,-306.34C287.71,-306.89 287.42,-307.80 287.42,-309.06C286.37,-307.80 285.15,-306.89 283.75,-306.34C282.36,-305.78 280.85,-305.50 279.23,-305.50C278.18,-305.50 277.18,-305.62 276.24,-305.86C275.30,-306.11 274.48,-306.48 273.79,-306.99C273.10,-307.50 272.55,-308.17 272.15,-308.99C271.74,-309.82 271.54,-310.81 271.54,-311.99C271.54,-313.31 271.76,-314.39 272.21,-315.23C272.66,-316.06 273.25,-316.75 273.99,-317.27C274.72,-317.80 275.56,-318.20 276.51,-318.47C277.45,-318.73 278.42,-318.96 279.41,-319.14C280.46,-319.35 281.46,-319.51 282.40,-319.61C283.35,-319.72 284.18,-319.87 284.90,-320.06C285.62,-320.26 286.19,-320.54 286.61,-320.92C287.03,-321.29 287.24,-321.84 287.24,-322.56C287.24,-323.40 287.09,-324.07 286.77,-324.58C286.45,-325.09 286.05,-325.48 285.55,-325.75C285.06,-326.02 284.50,-326.20 283.89,-326.30C283.27,-326.39 282.67,-326.43 282.07,-326.43C280.45,-326.43 279.10,-326.12 278.02,-325.51C276.94,-324.89 276.35,-323.73 276.26,-322.02L272.44,-322.02C272.50,-323.46 272.80,-324.68 273.34,-325.67C273.88,-326.66 274.60,-327.46 275.50,-328.07C276.40,-328.69 277.42,-329.13 278.58,-329.40C279.73,-329.67 280.97,-329.81 282.29,-329.81C283.34,-329.81 284.38,-329.73 285.42,-329.58C286.45,-329.43 287.39,-329.12 288.23,-328.66C289.07,-328.19 289.75,-327.54 290.26,-326.70C290.77,-325.86 291.02,-324.77 291.02,-323.42L291.02,-311.44C291.02,-310.54 291.07,-309.88 291.18,-309.47C291.28,-309.05 291.64,-308.84 292.24,-308.84C292.57,-308.84 292.96,-308.91 293.41,-309.06ZM287.20,-318.02C286.72,-317.66 286.09,-317.39 285.31,-317.23C284.53,-317.06 283.71,-316.93 282.85,-316.82C282.00,-316.72 281.14,-316.60 280.27,-316.46C279.40,-316.33 278.62,-316.11 277.93,-315.81C277.24,-315.51 276.67,-315.08 276.24,-314.53C275.80,-313.97 275.59,-313.21 275.59,-312.26C275.59,-311.62 275.71,-311.09 275.97,-310.66C276.22,-310.22 276.55,-309.87 276.96,-309.60C277.36,-309.33 277.84,-309.13 278.38,-309.02C278.92,-308.90 279.49,-308.84 280.09,-308.84C281.35,-308.84 282.43,-309.01 283.33,-309.35C284.23,-309.70 284.96,-310.13 285.53,-310.66C286.10,-311.18 286.52,-311.75 286.79,-312.37C287.06,-312.98 287.20,-313.56 287.20,-314.10Z" fill="#5d6d7e"/>
        <path d="M307.03,-290L307.03,-308.43L305.34,-308.43C305.22,-307.74 304.99,-307.17 304.66,-306.72C304.33,-306.27 303.93,-305.91 303.45,-305.65C302.98,-305.39 302.44,-305.21 301.85,-305.12C301.26,-305.02 300.66,-304.98 300.03,-304.98L300.03,-303.21L304.82,-303.21L304.82,-290Z" fill="#5d6d7e"/>
        <path d="M306.11,-351.24L306.11,-353.01L301.25,-353.01L301.25,-328.88L306.11,-328.88L306.11,-330.65L303.33,-330.65L303.33,-351.24ZM307.91,-352.56L307.91,-334L310.12,-334L310.12,-352.56ZM311.89,-330.65L311.89,-328.88L316.75,-328.88L316.75,-353.01L311.89,-353.01L311.89,-351.24L314.67,-351.24L314.67,-330.65Z" fill="#5d6d7e"/>
        <path d="M344,-189.60C344,-161.99 321.61,-139.60 294,-139.60C266.39,-139.60 244,-161.99 244,-189.60C244,-217.21 266.39,-239.60 294,-239.60C321.61,-239.60 344,-217.21 344,-189.60Z" stroke-width="4" fill="#ffffff" stroke="#5d6d7e"/>
        <path d="M293.41,-173.69C292.75,-173.30 291.83,-173.10 290.66,-173.10C289.67,-173.10 288.88,-173.38 288.30,-173.94C287.71,-174.49 287.42,-175.40 287.42,-176.66C286.37,-175.40 285.15,-174.49 283.75,-173.94C282.36,-173.38 280.85,-173.10 279.23,-173.10C278.18,-173.10 277.18,-173.22 276.24,-173.46C275.30,-173.71 274.48,-174.08 273.79,-174.59C273.10,-175.10 272.55,-175.77 272.15,-176.59C271.74,-177.42 271.54,-178.41 271.54,-179.59C271.54,-180.91 271.76,-181.99 272.21,-182.83C272.66,-183.66 273.25,-184.35 273.99,-184.87C274.72,-185.40 275.56,-185.80 276.51,-186.07C277.45,-186.33 278.42,-186.56 279.41,-186.74C280.46,-186.95 281.46,-187.11 282.40,-187.21C283.35,-187.32 284.18,-187.47 284.90,-187.66C285.62,-187.86 286.19,-188.14 286.61,-188.52C287.03,-188.89 287.24,-189.44 287.24,-190.16C287.24,-191.00 287.09,-191.67 286.77,-192.18C286.45,-192.69 286.05,-193.08 285.55,-193.35C285.06,-193.62 284.50,-193.80 283.89,-193.90C283.27,-193.99 282.67,-194.03 282.07,-194.03C280.45,-194.03 279.10,-193.72 278.02,-193.11C276.94,-192.49 276.35,-191.33 276.26,-189.62L272.44,-189.62C272.50,-191.06 272.80,-192.28 273.34,-193.27C273.88,-194.26 274.60,-195.06 275.50,-195.67C276.40,-196.29 277.42,-196.73 278.58,-197.00C279.73,-197.27 280.97,-197.41 282.29,-197.41C283.34,-197.41 284.38,-197.33 285.42,-197.18C286.45,-197.03 287.39,-196.72 288.23,-196.26C289.07,-195.79 289.75,-195.14 290.26,-194.30C290.77,-193.46 291.02,-192.37 291.02,-191.02L291.02,-179.04C291.02,-178.14 291.07,-177.48 291.18,-177.07C291.28,-176.65 291.64,-176.44 292.24,-176.44C292.57,-176.44 292.96,-176.51 293.41,-176.66ZM287.20,-185.62C286.72,-185.26 286.09,-184.99 285.31,-184.83C284.53,-184.66 283.71,-184.53 282.85,-184.42C282.00,-184.32 281.14,-184.20 280.27,-184.06C279.40,-183.93 278.62,-183.71 277.93,-183.41C277.24,-183.11 276.67,-182.68 276.24,-182.13C275.80,-181.57 275.59,-180.81 275.59,-179.86C275.59,-179.22 275.71,-178.69 275.97,-178.26C276.22,-177.82 276.55,-177.47 276.96,-177.20C277.36,-176.93 277.84,-176.73 278.38,-176.62C278.92,-176.50 279.49,-176.44 280.09,-176.44C281.35,-176.44 282.43,-176.61 283.33,-176.95C284.23,-177.30 284.96,-177.73 285.53,-178.26C286.10,-178.78 286.52,-179.35 286.79,-179.97C287.06,-180.58 287.20,-181.16 287.20,-181.70Z" fill="#5d6d7e"/>
        <path d="M298.92,-169.51L301.13,-169.51C301.11,-170.06 301.16,-170.61 301.30,-171.16C301.42,-171.71 301.64,-172.19 301.93,-172.63C302.23,-173.06 302.60,-173.41 303.06,-173.68C303.52,-173.95 304.07,-174.08 304.71,-174.08C305.20,-174.08 305.66,-174.01 306.09,-173.85C306.53,-173.69 306.90,-173.47 307.22,-173.17C307.54,-172.88 307.80,-172.53 307.99,-172.12C308.18,-171.71 308.28,-171.26 308.28,-170.76C308.28,-170.11 308.18,-169.55 307.98,-169.07C307.78,-168.58 307.48,-168.13 307.09,-167.71C306.70,-167.30 306.21,-166.89 305.62,-166.48C305.03,-166.07 304.35,-165.63 303.57,-165.14C302.93,-164.76 302.31,-164.35 301.72,-163.92C301.13,-163.48 300.61,-162.98 300.14,-162.41C299.67,-161.84 299.28,-161.17 298.98,-160.40C298.68,-159.62 298.48,-158.69 298.40,-157.60L310.43,-157.60L310.43,-159.55L300.97,-159.55C301.07,-160.12 301.29,-160.63 301.63,-161.07C301.97,-161.51 302.38,-161.92 302.85,-162.31C303.33,-162.69 303.86,-163.05 304.43,-163.38C305.00,-163.72 305.57,-164.07 306.14,-164.41C306.72,-164.78 307.27,-165.16 307.81,-165.56C308.35,-165.95 308.82,-166.40 309.24,-166.90C309.65,-167.39 309.99,-167.95 310.24,-168.57C310.49,-169.20 310.62,-169.92 310.62,-170.73C310.62,-171.60 310.46,-172.36 310.16,-173.02C309.86,-173.68 309.45,-174.23 308.93,-174.67C308.41,-175.11 307.80,-175.45 307.09,-175.68C306.39,-175.92 305.64,-176.03 304.84,-176.03C303.87,-176.03 303.01,-175.87 302.24,-175.54C301.48,-175.21 300.84,-174.76 300.33,-174.18C299.82,-173.59 299.44,-172.91 299.20,-172.11C298.96,-171.31 298.86,-170.44 298.92,-169.51Z" fill="#5d6d7e"/>
        <path d="M306.11,-218.84L306.11,-220.61L301.25,-220.61L301.25,-196.48L306.11,-196.48L306.11,-198.25L303.33,-198.25L303.33,-218.84ZM307.91,-220.16L307.91,-201.60L310.12,-201.60L310.12,-220.16ZM311.89,-198.25L311.89,-196.48L316.75,-196.48L316.75,-220.61L311.89,-220.61L311.89,-218.84L314.67,-218.84L314.67,-198.25Z" fill="#5d6d7e"/>
        <path d="M344,-57.20C344,-29.59 321.61,-7.20 294,-7.20C266.39,-7.20 244,-29.59 244,-57.20C244,-84.81 266.39,-107.20 294,-107.20C321.61,-107.20 344,-84.81 344,-57.20Z" stroke-width="4" fill="#ffffff" stroke="#5d6d7e"/>
        <path d="M293.41,-41.29C292.75,-40.90 291.83,-40.70 290.66,-40.70C289.67,-40.70 288.88,-40.98 288.30,-41.54C287.71,-42.09 287.42,-43.00 287.42,-44.26C286.37,-43.00 285.15,-42.09 283.75,-41.54C282.36,-40.98 280.85,-40.70 279.23,-40.70C278.18,-40.70 277.18,-40.82 276.24,-41.06C275.30,-41.31 274.48,-41.68 273.79,-42.19C273.10,-42.70 272.55,-43.37 272.15,-44.19C271.74,-45.02 271.54,-46.01 271.54,-47.19C271.54,-48.51 271.76,-49.59 272.21,-50.43C272.66,-51.26 273.25,-51.95 273.99,-52.47C274.72,-53.00 275.56,-53.40 276.51,-53.67C277.45,-53.93 278.42,-54.16 279.41,-54.34C280.46,-54.55 281.46,-54.71 282.40,-54.81C283.35,-54.92 284.18,-55.07 284.90,-55.26C285.62,-55.46 286.19,-55.74 286.61,-56.12C287.03,-56.49 287.24,-57.04 287.24,-57.76C287.24,-58.60 287.09,-59.27 286.77,-59.78C286.45,-60.29 286.05,-60.68 285.55,-60.95C285.06,-61.22 284.50,-61.40 283.89,-61.50C283.27,-61.59 282.67,-61.63 282.07,-61.63C280.45,-61.63 279.10,-61.32 278.02,-60.71C276.94,-60.09 276.35,-58.93 276.26,-57.22L272.44,-57.22C272.50,-58.66 272.80,-59.88 273.34,-60.87C273.88,-61.86 274.60,-62.66 275.50,-63.27C276.40,-63.89 277.42,-64.33 278.58,-64.60C279.73,-64.87 280.97,-65.01 282.29,-65.01C283.34,-65.01 284.38,-64.93 285.42,-64.78C286.45,-64.63 287.39,-64.32 288.23,-63.86C289.07,-63.39 289.75,-62.74 290.26,-61.90C290.77,-61.06 291.02,-59.97 291.02,-58.62L291.02,-46.64C291.02,-45.74 291.07,-45.08 291.18,-44.67C291.28,-44.25 291.64,-44.04 292.24,-44.04C292.57,-44.04 292.96,-44.11 293.41,-44.26ZM287.20,-53.22C286.72,-52.86 286.09,-52.59 285.31,-52.43C284.53,-52.26 283.71,-52.13 282.85,-52.02C282.00,-51.92 281.14,-51.80 280.27,-51.66C279.40,-51.53 278.62,-51.31 277.93,-51.01C277.24,-50.71 276.67,-50.28 276.24,-49.73C275.80,-49.17 275.59,-48.41 275.59,-47.46C275.59,-46.82 275.71,-46.29 275.97,-45.86C276.22,-45.42 276.55,-45.07 276.96,-44.80C277.36,-44.53 277.84,-44.33 278.38,-44.22C278.92,-44.10 279.49,-44.04 280.09,-44.04C281.35,-44.04 282.43,-44.21 283.33,-44.55C284.23,-44.90 284.96,-45.33 285.53,-45.86C286.10,-46.38 286.52,-46.95 286.79,-47.57C287.06,-48.18 287.20,-48.76 287.20,-49.30Z" fill="#5d6d7e"/>
        <path d="M296.32,-28.09L296.32,-25.20L299.20,-25.20L299.20,-28.09ZM303.54,-28.09L303.54,-25.20L306.43,-25.20L306.43,-28.09ZM310.77,-28.09L310.77,-25.20L313.66,-25.20L313.66,-28.09Z" fill="#5d6d7e"/>
        <path d="M306.11,-86.44L306.11,-88.21L301.25,-88.21L301.25,-64.08L306.11,-64.08L306.11,-65.85L303.33,-65.85L303.33,-86.44ZM307.91,-87.76L307.91,-69.20L310.12,-69.20L310.12,-87.76ZM311.89,-65.85L311.89,-64.08L316.75,-64.08L316.75,-88.21L311.89,-88.21L311.89,-86.44L314.67,-86.44L314.67,-65.85Z" fill="#5d6d7e"/>
        <path d="M344,75.20C344,102.81 321.61,125.20 294,125.20C266.39,125.20 244.00,102.81 244.00,75.20C244.00,47.59 266.39,25.20 294,25.20C321.61,25.20 344,47.59 344,75.20Z" stroke-width="4" fill="#ffffff" stroke="#5d6d7e"/>
        <path d="M293.41,91.11C292.75,91.50 291.83,91.70 290.66,91.70C289.67,91.70 288.88,91.42 288.30,90.86C287.71,90.31 287.42,89.40 287.42,88.14C286.37,89.40 285.15,90.31 283.75,90.86C282.36,91.42 280.85,91.70 279.23,91.70C278.18,91.70 277.18,91.58 276.24,91.34C275.30,91.09 274.48,90.72 273.79,90.21C273.10,89.70 272.55,89.03 272.15,88.21C271.74,87.38 271.54,86.39 271.54,85.21C271.54,83.89 271.76,82.81 272.21,81.97C272.66,81.14 273.25,80.45 273.99,79.93C274.72,79.40 275.56,79.00 276.51,78.73C277.45,78.47 278.42,78.24 279.41,78.06C280.46,77.85 281.46,77.69 282.40,77.59C283.35,77.48 284.18,77.33 284.90,77.14C285.62,76.94 286.19,76.66 286.61,76.28C287.03,75.91 287.24,75.36 287.24,74.64C287.24,73.80 287.09,73.13 286.77,72.62C286.45,72.11 286.05,71.72 285.55,71.45C285.06,71.18 284.50,71.00 283.89,70.90C283.27,70.81 282.67,70.77 282.07,70.77C280.45,70.77 279.10,71.08 278.02,71.69C276.94,72.31 276.35,73.47 276.26,75.18L272.44,75.18C272.50,73.74 272.80,72.52 273.34,71.53C273.88,70.54 274.60,69.74 275.50,69.13C276.40,68.51 277.42,68.07 278.58,67.80C279.73,67.53 280.97,67.39 282.29,67.39C283.34,67.39 284.38,67.47 285.42,67.62C286.45,67.77 287.39,68.08 288.23,68.54C289.07,69.01 289.75,69.66 290.26,70.50C290.77,71.34 291.02,72.43 291.02,73.78L291.02,85.76C291.02,86.66 291.07,87.32 291.18,87.73C291.28,88.15 291.64,88.36 292.24,88.36C292.57,88.36 292.96,88.29 293.41,88.14ZM287.20,79.18C286.72,79.54 286.09,79.81 285.31,79.97C284.53,80.14 283.71,80.27 282.85,80.38C282.00,80.48 281.14,80.60 280.27,80.74C279.40,80.87 278.62,81.09 277.93,81.39C277.24,81.69 276.67,82.12 276.24,82.67C275.80,83.23 275.59,83.99 275.59,84.94C275.59,85.58 275.71,86.11 275.97,86.54C276.22,86.98 276.55,87.33 276.96,87.60C277.36,87.87 277.84,88.07 278.38,88.18C278.92,88.30 279.49,88.36 280.09,88.36C281.35,88.36 282.43,88.19 283.33,87.85C284.23,87.50 284.96,87.07 285.53,86.54C286.10,86.02 286.52,85.45 286.79,84.83C287.06,84.22 287.20,83.64 287.20,83.10Z" fill="#5d6d7e"/>
        <path d="M306.12,91.34L306.12,88.64L303.91,88.64L303.91,91.34ZM303.91,93.76L303.91,107.20L306.12,107.20L306.12,93.76Z" fill="#5d6d7e"/>
        <path d="M306.11,45.96L306.11,44.19L301.25,44.19L301.25,68.32L306.11,68.32L306.11,66.55L303.33,66.55L303.33,45.96ZM307.91,44.64L307.91,63.20L310.12,63.20L310.12,44.64ZM311.89,66.55L311.89,68.32L316.75,68.32L316.75,44.19L311.89,44.19L311.89,45.96L314.67,45.96L314.67,66.55Z" fill="#5d6d7e"/>
        <path d="M344.00,207.60C344.00,235.21 321.61,257.60 294.00,257.60C266.39,257.60 244.00,235.21 244.00,207.60C244.00,179.99 266.39,157.60 294.00,157.60C321.61,157.60 344.00,179.99 344.00,207.60Z" stroke-width="4" fill="#ffffff" stroke="#5d6d7e"/>
        <path d="M293.41,223.51C292.75,223.90 291.83,224.10 290.66,224.10C289.67,224.10 288.88,223.82 288.30,223.26C287.71,222.71 287.42,221.80 287.42,220.54C286.37,221.80 285.15,222.71 283.75,223.26C282.36,223.82 280.85,224.10 279.23,224.10C278.18,224.10 277.18,223.98 276.24,223.74C275.30,223.49 274.48,223.12 273.79,222.61C273.10,222.10 272.55,221.43 272.15,220.61C271.74,219.78 271.54,218.79 271.54,217.61C271.54,216.29 271.76,215.21 272.21,214.37C272.66,213.54 273.25,212.85 273.99,212.33C274.72,211.80 275.56,211.40 276.51,211.13C277.45,210.87 278.42,210.64 279.41,210.46C280.46,210.25 281.46,210.09 282.40,209.99C283.35,209.88 284.18,209.73 284.90,209.54C285.62,209.34 286.19,209.06 286.61,208.68C287.03,208.31 287.24,207.76 287.24,207.04C287.24,206.20 287.09,205.53 286.77,205.02C286.45,204.51 286.05,204.12 285.55,203.85C285.06,203.58 284.50,203.40 283.89,203.30C283.27,203.21 282.67,203.17 282.07,203.17C280.45,203.17 279.10,203.48 278.02,204.09C276.94,204.71 276.35,205.87 276.26,207.58L272.44,207.58C272.50,206.14 272.80,204.92 273.34,203.93C273.88,202.94 274.60,202.14 275.50,201.53C276.40,200.91 277.42,200.47 278.58,200.20C279.73,199.93 280.97,199.79 282.29,199.79C283.34,199.79 284.38,199.87 285.42,200.02C286.45,200.17 287.39,200.48 288.23,200.94C289.07,201.41 289.75,202.06 290.26,202.90C290.77,203.74 291.02,204.83 291.02,206.18L291.02,218.16C291.02,219.06 291.07,219.72 291.18,220.13C291.28,220.55 291.64,220.76 292.24,220.76C292.57,220.76 292.96,220.69 293.41,220.54ZM287.20,211.58C286.72,211.94 286.09,212.21 285.31,212.37C284.53,212.54 283.71,212.67 282.85,212.78C282.00,212.88 281.14,213.00 280.27,213.14C279.40,213.27 278.62,213.49 277.93,213.79C277.24,214.09 276.67,214.52 276.24,215.07C275.80,215.63 275.59,216.39 275.59,217.34C275.59,217.98 275.71,218.51 275.97,218.94C276.22,219.38 276.55,219.73 276.96,220.00C277.36,220.27 277.84,220.47 278.38,220.58C278.92,220.70 279.49,220.76 280.09,220.76C281.35,220.76 282.43,220.59 283.33,220.25C284.23,219.90 284.96,219.47 285.53,218.94C286.10,218.42 286.52,217.85 286.79,217.23C287.06,216.62 287.20,216.04 287.20,215.50Z" fill="#5d6d7e"/>
        <path d="M296.32,236.71L296.32,239.60L299.20,239.60L299.20,236.71ZM303.54,236.71L303.54,239.60L306.43,239.60L306.43,236.71ZM310.77,236.71L310.77,239.60L313.66,239.60L313.66,236.71Z" fill="#5d6d7e"/>
        <path d="M306.11,178.36L306.11,176.59L301.25,176.59L301.25,200.72L306.11,200.72L306.11,198.95L303.33,198.95L303.33,178.36ZM307.91,177.04L307.91,195.60L310.12,195.60L310.12,177.04ZM311.89,198.95L311.89,200.72L316.75,200.72L316.75,176.59L311.89,176.59L311.89,178.36L314.67,178.36L314.67,198.95Z" fill="#5d6d7e"/>
        <path d="M344.00,340C344.00,367.61 321.61,390 294.00,390C266.39,390 244.00,367.61 244.00,340C244.00,312.39 266.39,290 294.00,290C321.61,290 344.00,312.39 344.00,340Z" stroke-width="4" fill="#ffffff" stroke="#5d6d7e"/>
        <path d="M293.41,355.91C292.75,356.30 291.83,356.50 290.66,356.50C289.67,356.50 288.88,356.22 288.30,355.66C287.71,355.11 287.42,354.20 287.42,352.94C286.37,354.20 285.15,355.11 283.75,355.66C282.36,356.22 280.85,356.50 279.23,356.50C278.18,356.50 277.18,356.38 276.24,356.14C275.30,355.89 274.48,355.52 273.79,355.01C273.10,354.50 272.55,353.83 272.15,353.01C271.74,352.18 271.54,351.19 271.54,350.01C271.54,348.69 271.76,347.61 272.21,346.77C272.66,345.94 273.25,345.25 273.99,344.73C274.72,344.20 275.56,343.80 276.51,343.53C277.45,343.27 278.42,343.04 279.41,342.86C280.46,342.65 281.46,342.49 282.40,342.39C283.35,342.28 284.18,342.13 284.90,341.94C285.62,341.74 286.19,341.46 286.61,341.08C287.03,340.71 287.24,340.16 287.24,339.44C287.24,338.60 287.09,337.93 286.77,337.42C286.45,336.91 286.05,336.52 285.55,336.25C285.06,335.98 284.50,335.80 283.89,335.70C283.27,335.61 282.67,335.57 282.07,335.57C280.45,335.57 279.10,335.88 278.02,336.49C276.94,337.11 276.35,338.27 276.26,339.98L272.44,339.98C272.50,338.54 272.80,337.32 273.34,336.33C273.88,335.34 274.60,334.54 275.50,333.93C276.40,333.31 277.42,332.87 278.58,332.60C279.73,332.33 280.97,332.19 282.29,332.19C283.34,332.19 284.38,332.27 285.42,332.42C286.45,332.57 287.39,332.88 288.23,333.34C289.07,333.81 289.75,334.46 290.26,335.30C290.77,336.14 291.02,337.23 291.02,338.58L291.02,350.56C291.02,351.46 291.07,352.12 291.18,352.53C291.28,352.95 291.64,353.16 292.24,353.16C292.57,353.16 292.96,353.09 293.41,352.94ZM287.20,343.98C286.72,344.34 286.09,344.61 285.31,344.77C284.53,344.94 283.71,345.07 282.85,345.18C282.00,345.28 281.14,345.40 280.27,345.54C279.40,345.67 278.62,345.89 277.93,346.19C277.24,346.49 276.67,346.92 276.24,347.47C275.80,348.03 275.59,348.79 275.59,349.74C275.59,350.38 275.71,350.91 275.97,351.34C276.22,351.78 276.55,352.13 276.96,352.40C277.36,352.67 277.84,352.87 278.38,352.98C278.92,353.10 279.49,353.16 280.09,353.16C281.35,353.16 282.43,352.99 283.33,352.65C284.23,352.30 284.96,351.87 285.53,351.34C286.10,350.82 286.52,350.25 286.79,349.63C287.06,349.02 287.20,348.44 287.20,347.90Z" fill="#5d6d7e"/>
        <path d="M296.55,358.56L296.55,372L298.76,372L298.76,364.41C298.76,363.80 298.84,363.24 299.01,362.73C299.17,362.22 299.42,361.77 299.75,361.39C300.08,361.01 300.49,360.72 300.98,360.51C301.48,360.30 302.06,360.20 302.74,360.20C303.59,360.20 304.25,360.44 304.74,360.92C305.23,361.41 305.47,362.07 305.47,362.90L305.47,372L307.68,372L307.68,363.16C307.68,362.43 307.60,361.77 307.46,361.17C307.31,360.57 307.05,360.06 306.69,359.62C306.33,359.19 305.85,358.85 305.26,358.61C304.67,358.37 303.93,358.25 303.05,358.25C301.06,358.25 299.60,359.06 298.68,360.69L298.63,360.69L298.63,358.56ZM311.14,353.44L311.14,372L313.35,372L313.35,353.44Z" fill="#5d6d7e"/>
        <path d="M306.11,310.76L306.11,308.99L301.25,308.99L301.25,333.12L306.11,333.12L306.11,331.35L303.33,331.35L303.33,310.76ZM307.91,309.44L307.91,328L310.12,328L310.12,309.44ZM311.89,331.35L311.89,333.12L316.75,333.12L316.75,308.99L311.89,308.99L311.89,310.76L314.67,310.76L314.67,331.35Z" fill="#5d6d7e"/>
        <path d="M-752,-416C-752,-391.15 -772.15,-371 -797,-371C-821.85,-371 -842,-391.15 -842,-416C-842,-440.85 -821.85,-461 -797,-461C-772.15,-461 -752,-440.85 -752,-416Z" stroke-width="4" fill="#ffffff" stroke="#5d6d7e"/>
        <path d="M-801.52,-421.24L-810.25,-409L-805.61,-409L-799.13,-418.63L-792.65,-409L-787.75,-409L-796.75,-421.56L-788.74,-432.26L-793.33,-432.26L-799.13,-424.12L-804.71,-432.26L-809.62,-432.26Z" fill="#5d6d7e"/>
        <path d="M-778.97,-394L-778.97,-412.43L-780.66,-412.43C-780.78,-411.74 -781.01,-411.17 -781.34,-410.72C-781.67,-410.27 -782.07,-409.91 -782.55,-409.65C-783.02,-409.39 -783.56,-409.21 -784.15,-409.12C-784.74,-409.02 -785.34,-408.98 -785.97,-408.98L-785.97,-407.21L-781.18,-407.21L-781.18,-394Z" fill="#5d6d7e"/>
        <path d="" fill="#5d6d7e"/>
        <path d="M-752,-289.14C-752,-264.29 -772.15,-244.14 -797,-244.14C-821.85,-244.14 -842,-264.29 -842,-289.14C-842,-314.00 -821.85,-334.14 -797,-334.14C-772.15,-334.14 -752,-314.00 -752,-289.14Z" stroke-width="4" fill="#ffffff" stroke="#5d6d7e"/>
        <path d="M-801.52,-294.38L-810.25,-282.14L-805.61,-282.14L-799.13,-291.77L-792.65,-282.14L-787.75,-282.14L-796.75,-294.70L-788.74,-305.41L-793.33,-305.41L-799.13,-297.26L-804.71,-305.41L-809.62,-305.41Z" fill="#5d6d7e"/>
        <path d="M-787.08,-279.05L-784.87,-279.05C-784.89,-279.61 -784.83,-280.16 -784.70,-280.70C-784.58,-281.25 -784.36,-281.74 -784.07,-282.17C-783.77,-282.60 -783.40,-282.96 -782.94,-283.22C-782.48,-283.49 -781.93,-283.63 -781.29,-283.63C-780.80,-283.63 -780.34,-283.55 -779.91,-283.39C-779.47,-283.24 -779.10,-283.01 -778.78,-282.72C-778.46,-282.42 -778.20,-282.07 -778.01,-281.66C-777.82,-281.26 -777.72,-280.80 -777.72,-280.30C-777.72,-279.66 -777.82,-279.09 -778.02,-278.61C-778.22,-278.12 -778.52,-277.67 -778.91,-277.26C-779.30,-276.84 -779.79,-276.43 -780.38,-276.02C-780.97,-275.61 -781.65,-275.17 -782.43,-274.68C-783.07,-274.30 -783.69,-273.89 -784.28,-273.46C-784.87,-273.03 -785.39,-272.52 -785.86,-271.95C-786.33,-271.38 -786.72,-270.71 -787.02,-269.94C-787.32,-269.17 -787.52,-268.23 -787.60,-267.14L-775.57,-267.14L-775.57,-269.09L-785.03,-269.09C-784.93,-269.66 -784.71,-270.17 -784.37,-270.61C-784.03,-271.06 -783.62,-271.47 -783.15,-271.85C-782.67,-272.23 -782.14,-272.59 -781.57,-272.93C-781.00,-273.27 -780.43,-273.61 -779.86,-273.95C-779.28,-274.32 -778.73,-274.70 -778.19,-275.10C-777.65,-275.50 -777.18,-275.94 -776.76,-276.44C-776.35,-276.93 -776.01,-277.49 -775.76,-278.11C-775.51,-278.74 -775.38,-279.46 -775.38,-280.27C-775.38,-281.14 -775.54,-281.90 -775.84,-282.56C-776.14,-283.22 -776.55,-283.77 -777.07,-284.21C-777.59,-284.65 -778.20,-284.99 -778.91,-285.23C-779.61,-285.46 -780.36,-285.58 -781.16,-285.58C-782.13,-285.58 -782.99,-285.41 -783.76,-285.08C-784.52,-284.75 -785.16,-284.30 -785.67,-283.72C-786.18,-283.14 -786.56,-282.45 -786.80,-281.65C-787.04,-280.85 -787.14,-279.99 -787.08,-279.05Z" fill="#5d6d7e"/>
        <path d="" fill="#5d6d7e"/>
        <path d="M-752,-162.29C-752,-137.43 -772.15,-117.29 -797,-117.29C-821.85,-117.29 -842,-137.43 -842,-162.29C-842,-187.14 -821.85,-207.29 -797,-207.29C-772.15,-207.29 -752,-187.14 -752,-162.29Z" stroke-width="4" fill="#ffffff" stroke="#5d6d7e"/>
        <path d="M-801.52,-167.53L-810.25,-155.29L-805.61,-155.29L-799.13,-164.92L-792.65,-155.29L-787.75,-155.29L-796.75,-167.84L-788.74,-178.55L-793.33,-178.55L-799.13,-170.41L-804.71,-178.55L-809.62,-178.55Z" fill="#5d6d7e"/>
        <path d="M-782.56,-150.82L-782.56,-148.94C-782.14,-149.00 -781.70,-149.02 -781.23,-149.02C-780.68,-149.02 -780.16,-148.95 -779.69,-148.80C-779.21,-148.65 -778.80,-148.43 -778.45,-148.12C-778.11,-147.82 -777.83,-147.45 -777.62,-147.01C-777.41,-146.56 -777.31,-146.06 -777.31,-145.49C-777.31,-144.93 -777.42,-144.43 -777.63,-143.99C-777.85,-143.55 -778.14,-143.18 -778.50,-142.87C-778.87,-142.57 -779.29,-142.34 -779.78,-142.17C-780.26,-142.01 -780.77,-141.92 -781.31,-141.92C-782.58,-141.92 -783.54,-142.30 -784.20,-143.05C-784.86,-143.81 -785.20,-144.78 -785.24,-145.98L-787.45,-145.98C-787.47,-145.03 -787.33,-144.18 -787.05,-143.43C-786.76,-142.69 -786.35,-142.06 -785.81,-141.55C-785.27,-141.04 -784.62,-140.65 -783.86,-140.39C-783.10,-140.13 -782.25,-140.00 -781.31,-140.00C-780.45,-140.00 -779.63,-140.12 -778.85,-140.35C-778.08,-140.58 -777.41,-140.94 -776.84,-141.40C-776.27,-141.87 -775.81,-142.46 -775.48,-143.16C-775.14,-143.86 -774.97,-144.67 -774.97,-145.59C-774.97,-146.70 -775.24,-147.66 -775.79,-148.48C-776.33,-149.29 -777.17,-149.82 -778.30,-150.06L-778.30,-150.11C-777.57,-150.44 -776.96,-150.93 -776.48,-151.57C-775.99,-152.21 -775.75,-152.95 -775.75,-153.78C-775.75,-154.63 -775.89,-155.37 -776.18,-155.99C-776.46,-156.61 -776.86,-157.13 -777.36,-157.52C-777.86,-157.92 -778.46,-158.22 -779.14,-158.42C-779.83,-158.62 -780.57,-158.72 -781.36,-158.72C-782.28,-158.72 -783.09,-158.57 -783.80,-158.28C-784.50,-157.98 -785.08,-157.58 -785.55,-157.06C-786.02,-156.54 -786.38,-155.91 -786.63,-155.18C-786.88,-154.46 -787.02,-153.65 -787.06,-152.77L-784.85,-152.77C-784.85,-153.30 -784.78,-153.81 -784.64,-154.30C-784.50,-154.79 -784.29,-155.21 -784.00,-155.57C-783.72,-155.94 -783.35,-156.23 -782.91,-156.44C-782.47,-156.66 -781.95,-156.77 -781.36,-156.77C-780.43,-156.77 -779.65,-156.52 -779.02,-156.03C-778.40,-155.53 -778.09,-154.79 -778.09,-153.81C-778.09,-153.32 -778.18,-152.89 -778.37,-152.51C-778.56,-152.12 -778.82,-151.81 -779.14,-151.56C-779.46,-151.31 -779.83,-151.11 -780.26,-150.98C-780.68,-150.85 -781.13,-150.79 -781.60,-150.79L-782.07,-150.79C-782.15,-150.79 -782.24,-150.79 -782.33,-150.79C-782.40,-150.79 -782.47,-150.80 -782.56,-150.82Z" fill="#5d6d7e"/>
        <path d="" fill="#5d6d7e"/>
        <path d="M-752,-35.43C-752,-10.58 -772.15,9.57 -797,9.57C-821.85,9.57 -842,-10.58 -842,-35.43C-842,-60.28 -821.85,-80.43 -797,-80.43C-772.15,-80.43 -752,-60.28 -752,-35.43Z" stroke-width="4" fill="#ffffff" stroke="#5d6d7e"/>
        <path d="M-801.52,-40.67L-810.25,-28.43L-805.61,-28.43L-799.13,-38.06L-792.65,-28.43L-787.75,-28.43L-796.75,-40.98L-788.74,-51.69L-793.33,-51.69L-799.13,-43.55L-804.71,-51.69L-809.62,-51.69Z" fill="#5d6d7e"/>
        <path d="M-779.41,-19.69L-785.60,-19.69L-779.47,-28.72L-779.41,-28.72ZM-777.33,-19.69L-777.33,-31.86L-779.10,-31.86L-787.50,-19.88L-787.50,-17.74L-779.41,-17.74L-779.41,-13.43L-777.33,-13.43L-777.33,-17.74L-774.84,-17.74L-774.84,-19.69Z" fill="#5d6d7e"/>
        <path d="" fill="#5d6d7e"/>
        <path d="M-752,91.43C-752,116.28 -772.15,136.43 -797,136.43C-821.85,136.43 -842,116.28 -842,91.43C-842,66.58 -821.85,46.43 -797,46.43C-772.15,46.43 -752,66.58 -752,91.43Z" stroke-width="4" fill="#ffffff" stroke="#5d6d7e"/>
        <path d="M-801.52,86.19L-810.25,98.43L-805.61,98.43L-799.13,88.80L-792.65,98.43L-787.75,98.43L-796.75,85.87L-788.74,75.16L-793.33,75.16L-799.13,83.31L-804.71,75.16L-809.62,75.16Z" fill="#5d6d7e"/>
        <path d="M-776.01,97.26L-776.01,95.31L-785.11,95.31L-786.82,104.87L-784.93,104.98C-784.49,104.46 -783.99,104.04 -783.43,103.72C-782.87,103.40 -782.22,103.24 -781.49,103.24C-780.87,103.24 -780.30,103.34 -779.79,103.55C-779.28,103.76 -778.84,104.05 -778.48,104.42C-778.11,104.79 -777.83,105.23 -777.63,105.75C-777.43,106.26 -777.33,106.82 -777.33,107.42C-777.33,108.15 -777.44,108.79 -777.65,109.33C-777.85,109.88 -778.14,110.33 -778.49,110.70C-778.85,111.06 -779.26,111.34 -779.74,111.52C-780.22,111.70 -780.71,111.79 -781.23,111.79C-781.79,111.79 -782.30,111.71 -782.76,111.54C-783.21,111.38 -783.61,111.14 -783.95,110.84C-784.29,110.54 -784.56,110.18 -784.76,109.78C-784.96,109.37 -785.07,108.93 -785.11,108.46L-787.32,108.46C-787.30,109.29 -787.14,110.04 -786.82,110.70C-786.51,111.36 -786.09,111.91 -785.55,112.35C-785.01,112.79 -784.39,113.13 -783.69,113.36C-782.99,113.60 -782.24,113.71 -781.44,113.71C-780.37,113.71 -779.43,113.55 -778.62,113.21C-777.82,112.87 -777.14,112.41 -776.61,111.84C-776.07,111.27 -775.67,110.62 -775.40,109.88C-775.13,109.14 -774.99,108.38 -774.99,107.60C-774.99,106.55 -775.15,105.62 -775.46,104.84C-775.77,104.05 -776.20,103.39 -776.74,102.86C-777.27,102.33 -777.91,101.94 -778.63,101.68C-779.36,101.42 -780.13,101.29 -780.95,101.29C-781.57,101.29 -782.20,101.39 -782.83,101.61C-783.47,101.83 -783.98,102.16 -784.38,102.61L-784.43,102.56L-783.44,97.26Z" fill="#5d6d7e"/>
        <path d="" fill="#5d6d7e"/>
        <path d="M-752,218.29C-752,243.14 -772.15,263.29 -797,263.29C-821.85,263.29 -842,243.14 -842,218.29C-842,193.43 -821.85,173.29 -797,173.29C-772.15,173.29 -752,193.43 -752,218.29Z" stroke-width="4" fill="#ffffff" stroke="#5d6d7e"/>
        <path d="M-801.52,213.05L-810.25,225.29L-805.61,225.29L-799.13,215.66L-792.65,225.29L-787.75,225.29L-796.75,212.73L-788.74,202.02L-793.33,202.02L-799.13,210.17L-804.71,202.02L-809.62,202.02Z" fill="#5d6d7e"/>
        <path d="M-789.68,237.40L-789.68,240.29L-786.80,240.29L-786.80,237.40ZM-782.46,237.40L-782.46,240.29L-779.57,240.29L-779.57,237.40ZM-775.23,237.40L-775.23,240.29L-772.34,240.29L-772.34,237.40Z" fill="#5d6d7e"/>
        <path d="" fill="#5d6d7e"/>
        <path d="M-752,345.14C-752,370.00 -772.15,390.14 -797,390.14C-821.85,390.14 -842,370.00 -842,345.14C-842,320.29 -821.85,300.14 -797,300.14C-772.15,300.14 -752,320.29 -752,345.14Z" stroke-width="4" fill="#ffffff" stroke="#5d6d7e"/>
        <path d="M-801.52,339.90L-810.25,352.14L-805.61,352.14L-799.13,342.51L-792.65,352.14L-787.75,352.14L-796.75,339.59L-788.74,328.88L-793.33,328.88L-799.13,337.02L-804.71,328.88L-809.62,328.88Z" fill="#5d6d7e"/>
        <path d="M-798.85,353.70L-798.85,367.14L-796.64,367.14L-796.64,359.55C-796.64,358.94 -796.56,358.39 -796.39,357.87C-796.23,357.36 -795.98,356.92 -795.65,356.53C-795.32,356.15 -794.91,355.86 -794.42,355.65C-793.92,355.44 -793.34,355.34 -792.66,355.34C-791.81,355.34 -791.14,355.58 -790.66,356.07C-790.17,356.55 -789.93,357.21 -789.93,358.04L-789.93,367.14L-787.72,367.14L-787.72,358.30C-787.72,357.57 -787.79,356.91 -787.94,356.31C-788.09,355.72 -788.35,355.20 -788.71,354.77C-789.07,354.33 -789.55,354.00 -790.14,353.75C-790.73,353.51 -791.47,353.39 -792.35,353.39C-794.34,353.39 -795.80,354.20 -796.72,355.83L-796.77,355.83L-796.77,353.70ZM-784.76,358.87L-784.76,360.95L-777.24,360.95L-777.24,358.87ZM-766.69,367.14L-766.69,348.71L-768.38,348.71C-768.50,349.40 -768.72,349.97 -769.05,350.42C-769.38,350.88 -769.79,351.23 -770.26,351.49C-770.74,351.75 -771.27,351.93 -771.86,352.02C-772.45,352.12 -773.06,352.17 -773.68,352.17L-773.68,353.93L-768.90,353.93L-768.90,367.14Z" fill="#5d6d7e"/>
        <path d="" fill="#5d6d7e"/>
        <path d="M-752,472C-752,496.85 -772.15,517 -797,517C-821.85,517 -842,496.85 -842,472C-842,447.15 -821.85,427 -797,427C-772.15,427 -752,447.15 -752,472Z" stroke-width="4" fill="#ffffff" stroke="#5d6d7e"/>
        <path d="M-801.52,466.76L-810.25,479L-805.61,479L-799.13,469.37L-792.65,479L-787.75,479L-796.75,466.44L-788.74,455.74L-793.33,455.74L-799.13,463.88L-804.71,455.74L-809.62,455.74Z" fill="#5d6d7e"/>
        <path d="M-786.56,480.56L-786.56,494L-784.35,494L-784.35,486.41C-784.35,485.80 -784.27,485.24 -784.11,484.73C-783.94,484.22 -783.70,483.77 -783.37,483.39C-783.04,483.01 -782.63,482.72 -782.13,482.51C-781.64,482.30 -781.05,482.20 -780.38,482.20C-779.53,482.20 -778.86,482.44 -778.37,482.92C-777.89,483.41 -777.65,484.07 -777.65,484.90L-777.65,494L-775.44,494L-775.44,485.16C-775.44,484.43 -775.51,483.77 -775.66,483.17C-775.80,482.57 -776.06,482.06 -776.42,481.62C-776.79,481.19 -777.26,480.85 -777.85,480.61C-778.44,480.37 -779.18,480.25 -780.06,480.25C-782.06,480.25 -783.51,481.06 -784.43,482.69L-784.48,482.69L-784.48,480.56Z" fill="#5d6d7e"/>
        <path d="" fill="#5d6d7e"/>
        <path d="M786,-123C786,-95.39 763.61,-73 736,-73C708.39,-73 686,-95.39 686,-123C686,-150.61 708.39,-173 736,-173C763.61,-173 786,-150.61 786,-123Z" stroke-width="4" fill="#ffffff" stroke="#5d6d7e"/>
        <path d="M735.41,-107.09C734.75,-106.70 733.83,-106.50 732.66,-106.50C731.67,-106.50 730.88,-106.78 730.30,-107.34C729.71,-107.89 729.42,-108.80 729.42,-110.06C728.37,-108.80 727.15,-107.89 725.75,-107.34C724.36,-106.78 722.85,-106.50 721.23,-106.50C720.18,-106.50 719.18,-106.62 718.24,-106.86C717.30,-107.11 716.48,-107.48 715.79,-107.99C715.10,-108.50 714.55,-109.17 714.15,-109.99C713.74,-110.82 713.54,-111.81 713.54,-112.99C713.54,-114.31 713.76,-115.39 714.21,-116.23C714.66,-117.06 715.25,-117.75 715.99,-118.27C716.72,-118.80 717.56,-119.20 718.51,-119.47C719.45,-119.73 720.42,-119.96 721.41,-120.14C722.46,-120.35 723.46,-120.51 724.40,-120.61C725.35,-120.72 726.18,-120.87 726.90,-121.06C727.62,-121.26 728.19,-121.54 728.61,-121.92C729.03,-122.29 729.24,-122.84 729.24,-123.56C729.24,-124.40 729.09,-125.07 728.77,-125.58C728.45,-126.09 728.05,-126.48 727.55,-126.75C727.06,-127.02 726.50,-127.20 725.89,-127.30C725.27,-127.39 724.67,-127.43 724.07,-127.43C722.45,-127.43 721.10,-127.12 720.02,-126.51C718.94,-125.89 718.35,-124.73 718.26,-123.02L714.44,-123.02C714.50,-124.46 714.80,-125.68 715.34,-126.67C715.88,-127.66 716.60,-128.46 717.50,-129.07C718.40,-129.69 719.42,-130.13 720.58,-130.40C721.73,-130.67 722.97,-130.81 724.29,-130.81C725.34,-130.81 726.38,-130.73 727.42,-130.58C728.45,-130.43 729.39,-130.12 730.23,-129.66C731.07,-129.19 731.75,-128.54 732.26,-127.70C732.77,-126.86 733.02,-125.77 733.02,-124.42L733.02,-112.44C733.02,-111.54 733.07,-110.88 733.18,-110.47C733.28,-110.05 733.64,-109.84 734.24,-109.84C734.57,-109.84 734.96,-109.91 735.41,-110.06ZM729.20,-119.02C728.72,-118.66 728.09,-118.39 727.31,-118.23C726.53,-118.06 725.71,-117.93 724.85,-117.82C724.00,-117.72 723.14,-117.60 722.27,-117.46C721.40,-117.33 720.62,-117.11 719.93,-116.81C719.24,-116.51 718.67,-116.08 718.24,-115.53C717.80,-114.97 717.59,-114.21 717.59,-113.26C717.59,-112.62 717.71,-112.09 717.97,-111.66C718.22,-111.22 718.55,-110.87 718.96,-110.60C719.36,-110.33 719.84,-110.13 720.38,-110.02C720.92,-109.90 721.49,-109.84 722.09,-109.84C723.35,-109.84 724.43,-110.01 725.33,-110.35C726.23,-110.70 726.96,-111.13 727.53,-111.66C728.10,-112.18 728.52,-112.75 728.79,-113.37C729.06,-113.98 729.20,-114.56 729.20,-115.10Z" fill="#5d6d7e"/>
        <path d="M749.03,-91L749.03,-109.43L747.34,-109.43C747.22,-108.74 746.99,-108.17 746.66,-107.72C746.33,-107.27 745.93,-106.91 745.45,-106.65C744.98,-106.39 744.44,-106.21 743.85,-106.12C743.26,-106.02 742.66,-105.98 742.03,-105.98L742.03,-104.21L746.82,-104.21L746.82,-91Z" fill="#5d6d7e"/>
        <path d="M743.77,-152.24L743.77,-154.01L738.91,-154.01L738.91,-129.88L743.77,-129.88L743.77,-131.65L740.99,-131.65L740.99,-152.24ZM745.80,-153.56L745.80,-135L758.10,-135L758.10,-137.08L748.27,-137.08L748.27,-153.56ZM758.23,-131.65L758.23,-129.88L763.09,-129.88L763.09,-154.01L758.23,-154.01L758.23,-152.24L761.01,-152.24L761.01,-131.65Z" fill="#5d6d7e"/>
        <path d="M786,16C786,43.61 763.61,66 736,66C708.39,66 686,43.61 686,16C686,-11.61 708.39,-34 736,-34C763.61,-34 786,-11.61 786,16Z" stroke-width="4" fill="#ffffff" stroke="#5d6d7e"/>
        <path d="M735.41,31.91C734.75,32.30 733.83,32.50 732.66,32.50C731.67,32.50 730.88,32.22 730.30,31.66C729.71,31.11 729.42,30.20 729.42,28.94C728.37,30.20 727.15,31.11 725.75,31.66C724.36,32.22 722.85,32.50 721.23,32.50C720.18,32.50 719.18,32.38 718.24,32.14C717.30,31.89 716.48,31.52 715.79,31.01C715.10,30.50 714.55,29.83 714.15,29.01C713.74,28.18 713.54,27.19 713.54,26.01C713.54,24.69 713.76,23.61 714.21,22.77C714.66,21.94 715.25,21.25 715.99,20.73C716.72,20.20 717.56,19.80 718.51,19.53C719.45,19.27 720.42,19.04 721.41,18.86C722.46,18.65 723.46,18.49 724.40,18.39C725.35,18.28 726.18,18.13 726.90,17.94C727.62,17.74 728.19,17.46 728.61,17.08C729.03,16.71 729.24,16.16 729.24,15.44C729.24,14.60 729.09,13.93 728.77,13.42C728.45,12.91 728.05,12.52 727.55,12.25C727.06,11.98 726.50,11.80 725.89,11.70C725.27,11.61 724.67,11.57 724.07,11.57C722.45,11.57 721.10,11.88 720.02,12.49C718.94,13.11 718.35,14.27 718.26,15.98L714.44,15.98C714.50,14.54 714.80,13.32 715.34,12.33C715.88,11.34 716.60,10.54 717.50,9.93C718.40,9.31 719.42,8.87 720.58,8.60C721.73,8.33 722.97,8.19 724.29,8.19C725.34,8.19 726.38,8.27 727.42,8.42C728.45,8.57 729.39,8.88 730.23,9.34C731.07,9.81 731.75,10.46 732.26,11.30C732.77,12.14 733.02,13.23 733.02,14.58L733.02,26.56C733.02,27.46 733.07,28.12 733.18,28.53C733.28,28.95 733.64,29.16 734.24,29.16C734.57,29.16 734.96,29.09 735.41,28.94ZM729.20,19.98C728.72,20.34 728.09,20.61 727.31,20.77C726.53,20.94 725.71,21.07 724.85,21.18C724.00,21.28 723.14,21.40 722.27,21.54C721.40,21.67 720.62,21.89 719.93,22.19C719.24,22.49 718.67,22.92 718.24,23.47C717.80,24.03 717.59,24.79 717.59,25.74C717.59,26.38 717.71,26.91 717.97,27.34C718.22,27.78 718.55,28.13 718.96,28.40C719.36,28.67 719.84,28.87 720.38,28.98C720.92,29.10 721.49,29.16 722.09,29.16C723.35,29.16 724.43,28.99 725.33,28.65C726.23,28.30 726.96,27.87 727.53,27.34C728.10,26.82 728.52,26.25 728.79,25.63C729.06,25.02 729.20,24.44 729.20,23.90Z" fill="#5d6d7e"/>
        <path d="M738.32,45.11L738.32,48L741.20,48L741.20,45.11ZM745.54,45.11L745.54,48L748.43,48L748.43,45.11ZM752.77,45.11L752.77,48L755.66,48L755.66,45.11Z" fill="#5d6d7e"/>
        <path d="M743.77,-13.24L743.77,-15.01L738.91,-15.01L738.91,9.12L743.77,9.12L743.77,7.35L740.99,7.35L740.99,-13.24ZM745.80,-14.56L745.80,4L758.10,4L758.10,1.92L748.27,1.92L748.27,-14.56ZM758.23,7.35L758.23,9.12L763.09,9.12L763.09,-15.01L758.23,-15.01L758.23,-13.24L761.01,-13.24L761.01,7.35Z" fill="#5d6d7e"/>
        <path d="M786,155C786,182.61 763.61,205 736,205C708.39,205 686,182.61 686,155C686,127.39 708.39,105 736,105C763.61,105 786,127.39 786,155Z" stroke-width="4" fill="#ffffff" stroke="#5d6d7e"/>
        <path d="M735.41,170.91C734.75,171.30 733.83,171.50 732.66,171.50C731.67,171.50 730.88,171.22 730.30,170.66C729.71,170.11 729.42,169.20 729.42,167.94C728.37,169.20 727.15,170.11 725.75,170.66C724.36,171.22 722.85,171.50 721.23,171.50C720.18,171.50 719.18,171.38 718.24,171.14C717.30,170.89 716.48,170.52 715.79,170.01C715.10,169.50 714.55,168.83 714.15,168.01C713.74,167.18 713.54,166.19 713.54,165.01C713.54,163.69 713.76,162.61 714.21,161.77C714.66,160.94 715.25,160.25 715.99,159.73C716.72,159.20 717.56,158.80 718.51,158.53C719.45,158.27 720.42,158.04 721.41,157.86C722.46,157.65 723.46,157.49 724.40,157.39C725.35,157.28 726.18,157.13 726.90,156.94C727.62,156.74 728.19,156.46 728.61,156.08C729.03,155.71 729.24,155.16 729.24,154.44C729.24,153.60 729.09,152.93 728.77,152.42C728.45,151.91 728.05,151.52 727.55,151.25C727.06,150.98 726.50,150.80 725.89,150.70C725.27,150.61 724.67,150.57 724.07,150.57C722.45,150.57 721.10,150.88 720.02,151.49C718.94,152.11 718.35,153.27 718.26,154.98L714.44,154.98C714.50,153.54 714.80,152.32 715.34,151.33C715.88,150.34 716.60,149.54 717.50,148.93C718.40,148.31 719.42,147.87 720.58,147.60C721.73,147.33 722.97,147.19 724.29,147.19C725.34,147.19 726.38,147.27 727.42,147.42C728.45,147.57 729.39,147.88 730.23,148.34C731.07,148.81 731.75,149.46 732.26,150.30C732.77,151.14 733.02,152.23 733.02,153.58L733.02,165.56C733.02,166.46 733.07,167.12 733.18,167.53C733.28,167.95 733.64,168.16 734.24,168.16C734.57,168.16 734.96,168.09 735.41,167.94ZM729.20,158.98C728.72,159.34 728.09,159.61 727.31,159.77C726.53,159.94 725.71,160.07 724.85,160.18C724.00,160.28 723.14,160.40 722.27,160.54C721.40,160.67 720.62,160.89 719.93,161.19C719.24,161.49 718.67,161.92 718.24,162.47C717.80,163.03 717.59,163.79 717.59,164.74C717.59,165.38 717.71,165.91 717.97,166.34C718.22,166.78 718.55,167.13 718.96,167.40C719.36,167.67 719.84,167.87 720.38,167.98C720.92,168.10 721.49,168.16 722.09,168.16C723.35,168.16 724.43,167.99 725.33,167.65C726.23,167.30 726.96,166.87 727.53,166.34C728.10,165.82 728.52,165.25 728.79,164.63C729.06,164.02 729.20,163.44 729.20,162.90Z" fill="#5d6d7e"/>
        <path d="M734.21,173.56L734.21,187L736.42,187L736.42,179.41C736.42,178.80 736.50,178.24 736.66,177.73C736.83,177.22 737.08,176.77 737.41,176.39C737.74,176.01 738.15,175.72 738.64,175.51C739.13,175.30 739.72,175.20 740.40,175.20C741.25,175.20 741.91,175.44 742.40,175.92C742.88,176.41 743.13,177.07 743.13,177.90L743.13,187L745.34,187L745.34,178.16C745.34,177.43 745.26,176.77 745.11,176.17C744.97,175.57 744.71,175.06 744.35,174.62C743.98,174.19 743.51,173.85 742.92,173.61C742.33,173.37 741.59,173.25 740.71,173.25C738.71,173.25 737.26,174.06 736.34,175.69L736.29,175.69L736.29,173.56ZM749.03,168.44L749.03,187L761.33,187L761.33,184.92L751.50,184.92L751.50,168.44Z" fill="#5d6d7e"/>
        <path d="M743.77,125.76L743.77,123.99L738.91,123.99L738.91,148.12L743.77,148.12L743.77,146.35L740.99,146.35L740.99,125.76ZM745.80,124.44L745.80,143L758.10,143L758.10,140.92L748.27,140.92L748.27,124.44ZM758.23,146.35L758.23,148.12L763.09,148.12L763.09,123.99L758.23,123.99L758.23,125.76L761.01,125.76L761.01,146.35Z" fill="#5d6d7e"/>
    </g>
</svg>